ISO-10303-21;
HEADER;
FILE_DESCRIPTION(('golf'),'2;1');
FILE_NAME('golf showcase','',(''),(''),'golf','golf','');
FILE_SCHEMA(('AP242_MANAGED_MODEL_BASED_3D_ENGINEERING_MIM_LF { 1 0 10303 442 1 1 4 }'));
ENDSEC;
DATA;
#1=(LENGTH_UNIT()NAMED_UNIT(*)SI_UNIT(.MILLI.,.METRE.));
#2=(NAMED_UNIT(*)PLANE_ANGLE_UNIT()SI_UNIT($,.RADIAN.));
#3=(NAMED_UNIT(*)SI_UNIT($,.STERADIAN.)SOLID_ANGLE_UNIT());
#4=UNCERTAINTY_MEASURE_WITH_UNIT(LENGTH_MEASURE(1.E-6),#1,'distance_accuracy_value','');
#5=(GEOMETRIC_REPRESENTATION_CONTEXT(3)GLOBAL_UNCERTAINTY_ASSIGNED_CONTEXT((#4))GLOBAL_UNIT_ASSIGNED_CONTEXT((#1,#2,#3))REPRESENTATION_CONTEXT('',''));
#6=APPLICATION_CONTEXT('managed model based 3d engineering');
#7=APPLICATION_PROTOCOL_DEFINITION('international standard','ap242_managed_model_based_3d_engineering',2014,#6);
#8=PRODUCT_CONTEXT('',#6,'mechanical');
#9=PRODUCT_DEFINITION_CONTEXT('part definition',#6,'design');
#10=CARTESIAN_POINT('',(8.0,0.0,0.0));
#11=VERTEX_POINT('',#10);
#12=CARTESIAN_POINT('',(8.0,0.0,8.0));
#13=VERTEX_POINT('',#12);
#14=CARTESIAN_POINT('',(8.0,0.0,0.0));
#15=DIRECTION('',(0.0,0.0,1.0));
#16=VECTOR('',#15,1.0);
#17=LINE('',#14,#16);
#18=EDGE_CURVE('',#11,#13,#17,.T.);
#19=CARTESIAN_POINT('',(92.0,0.0,0.0));
#20=VERTEX_POINT('',#19);
#21=CARTESIAN_POINT('',(92.0,0.0,8.0));
#22=VERTEX_POINT('',#21);
#23=CARTESIAN_POINT('',(92.0,0.0,0.0));
#24=DIRECTION('',(0.0,0.0,1.0));
#25=VECTOR('',#24,1.0);
#26=LINE('',#23,#25);
#27=EDGE_CURVE('',#20,#22,#26,.T.);
#28=CARTESIAN_POINT('',(100.0,8.0,0.0));
#29=VERTEX_POINT('',#28);
#30=CARTESIAN_POINT('',(100.0,8.0,8.0));
#31=VERTEX_POINT('',#30);
#32=CARTESIAN_POINT('',(100.0,8.0,0.0));
#33=DIRECTION('',(0.0,0.0,1.0));
#34=VECTOR('',#33,1.0);
#35=LINE('',#32,#34);
#36=EDGE_CURVE('',#29,#31,#35,.T.);
#37=CARTESIAN_POINT('',(100.0,52.0,0.0));
#38=VERTEX_POINT('',#37);
#39=CARTESIAN_POINT('',(100.0,52.0,8.0));
#40=VERTEX_POINT('',#39);
#41=CARTESIAN_POINT('',(100.0,52.0,0.0));
#42=DIRECTION('',(0.0,0.0,1.0));
#43=VECTOR('',#42,1.0);
#44=LINE('',#41,#43);
#45=EDGE_CURVE('',#38,#40,#44,.T.);
#46=CARTESIAN_POINT('',(92.0,60.0,0.0));
#47=VERTEX_POINT('',#46);
#48=CARTESIAN_POINT('',(92.0,60.0,8.0));
#49=VERTEX_POINT('',#48);
#50=CARTESIAN_POINT('',(92.0,60.0,0.0));
#51=DIRECTION('',(0.0,0.0,1.0));
#52=VECTOR('',#51,1.0);
#53=LINE('',#50,#52);
#54=EDGE_CURVE('',#47,#49,#53,.T.);
#55=CARTESIAN_POINT('',(8.0,60.0,0.0));
#56=VERTEX_POINT('',#55);
#57=CARTESIAN_POINT('',(8.0,60.0,8.0));
#58=VERTEX_POINT('',#57);
#59=CARTESIAN_POINT('',(8.0,60.0,0.0));
#60=DIRECTION('',(0.0,0.0,1.0));
#61=VECTOR('',#60,1.0);
#62=LINE('',#59,#61);
#63=EDGE_CURVE('',#56,#58,#62,.T.);
#64=CARTESIAN_POINT('',(0.0,52.0,0.0));
#65=VERTEX_POINT('',#64);
#66=CARTESIAN_POINT('',(0.0,52.0,8.0));
#67=VERTEX_POINT('',#66);
#68=CARTESIAN_POINT('',(0.0,52.0,0.0));
#69=DIRECTION('',(0.0,0.0,1.0));
#70=VECTOR('',#69,1.0);
#71=LINE('',#68,#70);
#72=EDGE_CURVE('',#65,#67,#71,.T.);
#73=CARTESIAN_POINT('',(0.0,8.000000000000002,0.0));
#74=VERTEX_POINT('',#73);
#75=CARTESIAN_POINT('',(0.0,8.000000000000002,8.0));
#76=VERTEX_POINT('',#75);
#77=CARTESIAN_POINT('',(0.0,8.000000000000002,0.0));
#78=DIRECTION('',(0.0,0.0,1.0));
#79=VECTOR('',#78,1.0);
#80=LINE('',#77,#79);
#81=EDGE_CURVE('',#74,#76,#80,.T.);
#82=CARTESIAN_POINT('',(8.0,0.0,0.0));
#83=DIRECTION('',(1.0,0.0,0.0));
#84=VECTOR('',#83,1.0);
#85=LINE('',#82,#84);
#86=EDGE_CURVE('',#11,#20,#85,.T.);
#87=CARTESIAN_POINT('',(8.0,0.0,8.0));
#88=DIRECTION('',(1.0,0.0,0.0));
#89=VECTOR('',#88,1.0);
#90=LINE('',#87,#89);
#91=EDGE_CURVE('',#13,#22,#90,.T.);
#92=CARTESIAN_POINT('',(92.0,8.0,0.0));
#93=DIRECTION('',(0.0,0.0,1.0));
#94=DIRECTION('',(1.0,0.0,0.0));
#95=AXIS2_PLACEMENT_3D('',#92,#93,#94);
#96=CIRCLE('',#95,8.0);
#97=EDGE_CURVE('',#20,#29,#96,.T.);
#98=CARTESIAN_POINT('',(92.0,8.0,8.0));
#99=DIRECTION('',(0.0,0.0,1.0));
#100=DIRECTION('',(1.0,0.0,0.0));
#101=AXIS2_PLACEMENT_3D('',#98,#99,#100);
#102=CIRCLE('',#101,8.0);
#103=EDGE_CURVE('',#22,#31,#102,.T.);
#104=CARTESIAN_POINT('',(100.0,8.0,0.0));
#105=DIRECTION('',(0.0,1.0,0.0));
#106=VECTOR('',#105,1.0);
#107=LINE('',#104,#106);
#108=EDGE_CURVE('',#29,#38,#107,.T.);
#109=CARTESIAN_POINT('',(100.0,8.0,8.0));
#110=DIRECTION('',(0.0,1.0,0.0));
#111=VECTOR('',#110,1.0);
#112=LINE('',#109,#111);
#113=EDGE_CURVE('',#31,#40,#112,.T.);
#114=CARTESIAN_POINT('',(92.0,52.0,0.0));
#115=DIRECTION('',(0.0,0.0,1.0));
#116=DIRECTION('',(1.0,0.0,0.0));
#117=AXIS2_PLACEMENT_3D('',#114,#115,#116);
#118=CIRCLE('',#117,8.0);
#119=EDGE_CURVE('',#38,#47,#118,.T.);
#120=CARTESIAN_POINT('',(92.0,52.0,8.0));
#121=DIRECTION('',(0.0,0.0,1.0));
#122=DIRECTION('',(1.0,0.0,0.0));
#123=AXIS2_PLACEMENT_3D('',#120,#121,#122);
#124=CIRCLE('',#123,8.0);
#125=EDGE_CURVE('',#40,#49,#124,.T.);
#126=CARTESIAN_POINT('',(92.0,60.0,0.0));
#127=DIRECTION('',(-1.0,0.0,0.0));
#128=VECTOR('',#127,1.0);
#129=LINE('',#126,#128);
#130=EDGE_CURVE('',#47,#56,#129,.T.);
#131=CARTESIAN_POINT('',(92.0,60.0,8.0));
#132=DIRECTION('',(-1.0,0.0,0.0));
#133=VECTOR('',#132,1.0);
#134=LINE('',#131,#133);
#135=EDGE_CURVE('',#49,#58,#134,.T.);
#136=CARTESIAN_POINT('',(8.0,52.0,0.0));
#137=DIRECTION('',(0.0,0.0,1.0));
#138=DIRECTION('',(1.0,0.0,0.0));
#139=AXIS2_PLACEMENT_3D('',#136,#137,#138);
#140=CIRCLE('',#139,8.0);
#141=EDGE_CURVE('',#56,#65,#140,.T.);
#142=CARTESIAN_POINT('',(8.0,52.0,8.0));
#143=DIRECTION('',(0.0,0.0,1.0));
#144=DIRECTION('',(1.0,0.0,0.0));
#145=AXIS2_PLACEMENT_3D('',#142,#143,#144);
#146=CIRCLE('',#145,8.0);
#147=EDGE_CURVE('',#58,#67,#146,.T.);
#148=CARTESIAN_POINT('',(0.0,52.0,0.0));
#149=DIRECTION('',(0.0,-1.0,0.0));
#150=VECTOR('',#149,1.0);
#151=LINE('',#148,#150);
#152=EDGE_CURVE('',#65,#74,#151,.T.);
#153=CARTESIAN_POINT('',(0.0,52.0,8.0));
#154=DIRECTION('',(0.0,-1.0,0.0));
#155=VECTOR('',#154,1.0);
#156=LINE('',#153,#155);
#157=EDGE_CURVE('',#67,#76,#156,.T.);
#158=CARTESIAN_POINT('',(8.0,8.0,0.0));
#159=DIRECTION('',(0.0,0.0,1.0));
#160=DIRECTION('',(1.0,0.0,0.0));
#161=AXIS2_PLACEMENT_3D('',#158,#159,#160);
#162=CIRCLE('',#161,8.0);
#163=EDGE_CURVE('',#74,#11,#162,.T.);
#164=CARTESIAN_POINT('',(8.0,8.0,8.0));
#165=DIRECTION('',(0.0,0.0,1.0));
#166=DIRECTION('',(1.0,0.0,0.0));
#167=AXIS2_PLACEMENT_3D('',#164,#165,#166);
#168=CIRCLE('',#167,8.0);
#169=EDGE_CURVE('',#76,#13,#168,.T.);
#170=CARTESIAN_POINT('',(10.0,15.000000000000002,0.0));
#171=VERTEX_POINT('',#170);
#172=CARTESIAN_POINT('',(10.0,15.000000000000002,8.0));
#173=VERTEX_POINT('',#172);
#174=CARTESIAN_POINT('',(10.0,15.000000000000002,0.0));
#175=DIRECTION('',(0.0,0.0,1.0));
#176=VECTOR('',#175,1.0);
#177=LINE('',#174,#176);
#178=EDGE_CURVE('',#171,#173,#177,.T.);
#179=CARTESIAN_POINT('',(15.0,15.0,0.0));
#180=DIRECTION('',(0.0,0.0,1.0));
#181=DIRECTION('',(1.0,0.0,0.0));
#182=AXIS2_PLACEMENT_3D('',#179,#180,#181);
#183=CIRCLE('',#182,5.0);
#184=EDGE_CURVE('',#171,#171,#183,.T.);
#185=CARTESIAN_POINT('',(15.0,15.0,8.0));
#186=DIRECTION('',(0.0,0.0,1.0));
#187=DIRECTION('',(1.0,0.0,0.0));
#188=AXIS2_PLACEMENT_3D('',#185,#186,#187);
#189=CIRCLE('',#188,5.0);
#190=EDGE_CURVE('',#173,#173,#189,.T.);
#191=CARTESIAN_POINT('',(10.0,45.0,0.0));
#192=VERTEX_POINT('',#191);
#193=CARTESIAN_POINT('',(10.0,45.0,8.0));
#194=VERTEX_POINT('',#193);
#195=CARTESIAN_POINT('',(10.0,45.0,0.0));
#196=DIRECTION('',(0.0,0.0,1.0));
#197=VECTOR('',#196,1.0);
#198=LINE('',#195,#197);
#199=EDGE_CURVE('',#192,#194,#198,.T.);
#200=CARTESIAN_POINT('',(15.0,45.0,0.0));
#201=DIRECTION('',(0.0,0.0,1.0));
#202=DIRECTION('',(1.0,0.0,0.0));
#203=AXIS2_PLACEMENT_3D('',#200,#201,#202);
#204=CIRCLE('',#203,5.0);
#205=EDGE_CURVE('',#192,#192,#204,.T.);
#206=CARTESIAN_POINT('',(15.0,45.0,8.0));
#207=DIRECTION('',(0.0,0.0,1.0));
#208=DIRECTION('',(1.0,0.0,0.0));
#209=AXIS2_PLACEMENT_3D('',#206,#207,#208);
#210=CIRCLE('',#209,5.0);
#211=EDGE_CURVE('',#194,#194,#210,.T.);
#212=CARTESIAN_POINT('',(40.0,25.0,0.0));
#213=VERTEX_POINT('',#212);
#214=CARTESIAN_POINT('',(40.0,25.0,8.0));
#215=VERTEX_POINT('',#214);
#216=CARTESIAN_POINT('',(40.0,25.0,0.0));
#217=DIRECTION('',(0.0,0.0,1.0));
#218=VECTOR('',#217,1.0);
#219=LINE('',#216,#218);
#220=EDGE_CURVE('',#213,#215,#219,.T.);
#221=CARTESIAN_POINT('',(40.0,35.0,0.0));
#222=VERTEX_POINT('',#221);
#223=CARTESIAN_POINT('',(40.0,35.0,8.0));
#224=VERTEX_POINT('',#223);
#225=CARTESIAN_POINT('',(40.0,35.0,0.0));
#226=DIRECTION('',(0.0,0.0,1.0));
#227=VECTOR('',#226,1.0);
#228=LINE('',#225,#227);
#229=EDGE_CURVE('',#222,#224,#228,.T.);
#230=CARTESIAN_POINT('',(70.0,35.0,0.0));
#231=VERTEX_POINT('',#230);
#232=CARTESIAN_POINT('',(70.0,35.0,8.0));
#233=VERTEX_POINT('',#232);
#234=CARTESIAN_POINT('',(70.0,35.0,0.0));
#235=DIRECTION('',(0.0,0.0,1.0));
#236=VECTOR('',#235,1.0);
#237=LINE('',#234,#236);
#238=EDGE_CURVE('',#231,#233,#237,.T.);
#239=CARTESIAN_POINT('',(70.0,25.0,0.0));
#240=VERTEX_POINT('',#239);
#241=CARTESIAN_POINT('',(70.0,25.0,8.0));
#242=VERTEX_POINT('',#241);
#243=CARTESIAN_POINT('',(70.0,25.0,0.0));
#244=DIRECTION('',(0.0,0.0,1.0));
#245=VECTOR('',#244,1.0);
#246=LINE('',#243,#245);
#247=EDGE_CURVE('',#240,#242,#246,.T.);
#248=CARTESIAN_POINT('',(40.0,30.0,0.0));
#249=DIRECTION('',(0.0,0.0,1.0));
#250=DIRECTION('',(1.0,0.0,0.0));
#251=AXIS2_PLACEMENT_3D('',#248,#249,#250);
#252=CIRCLE('',#251,5.0);
#253=EDGE_CURVE('',#222,#213,#252,.T.);
#254=CARTESIAN_POINT('',(40.0,30.0,8.0));
#255=DIRECTION('',(0.0,0.0,1.0));
#256=DIRECTION('',(1.0,0.0,0.0));
#257=AXIS2_PLACEMENT_3D('',#254,#255,#256);
#258=CIRCLE('',#257,5.0);
#259=EDGE_CURVE('',#224,#215,#258,.T.);
#260=CARTESIAN_POINT('',(40.0,35.0,0.0));
#261=DIRECTION('',(1.0,0.0,0.0));
#262=VECTOR('',#261,1.0);
#263=LINE('',#260,#262);
#264=EDGE_CURVE('',#222,#231,#263,.T.);
#265=CARTESIAN_POINT('',(40.0,35.0,8.0));
#266=DIRECTION('',(1.0,0.0,0.0));
#267=VECTOR('',#266,1.0);
#268=LINE('',#265,#267);
#269=EDGE_CURVE('',#224,#233,#268,.T.);
#270=CARTESIAN_POINT('',(70.0,30.0,0.0));
#271=DIRECTION('',(0.0,0.0,1.0));
#272=DIRECTION('',(1.0,0.0,0.0));
#273=AXIS2_PLACEMENT_3D('',#270,#271,#272);
#274=CIRCLE('',#273,5.0);
#275=EDGE_CURVE('',#240,#231,#274,.T.);
#276=CARTESIAN_POINT('',(70.0,30.0,8.0));
#277=DIRECTION('',(0.0,0.0,1.0));
#278=DIRECTION('',(1.0,0.0,0.0));
#279=AXIS2_PLACEMENT_3D('',#276,#277,#278);
#280=CIRCLE('',#279,5.0);
#281=EDGE_CURVE('',#242,#233,#280,.T.);
#282=CARTESIAN_POINT('',(70.0,25.0,0.0));
#283=DIRECTION('',(-1.0,0.0,0.0));
#284=VECTOR('',#283,1.0);
#285=LINE('',#282,#284);
#286=EDGE_CURVE('',#240,#213,#285,.T.);
#287=CARTESIAN_POINT('',(70.0,25.0,8.0));
#288=DIRECTION('',(-1.0,0.0,0.0));
#289=VECTOR('',#288,1.0);
#290=LINE('',#287,#289);
#291=EDGE_CURVE('',#242,#215,#290,.T.);
#292=CARTESIAN_POINT('',(0.0,0.0,0.0));
#293=DIRECTION('',(0.0,0.0,1.0));
#294=DIRECTION('',(1.0,0.0,0.0));
#295=AXIS2_PLACEMENT_3D('',#292,#293,#294);
#296=PLANE('',#295);
#297=ORIENTED_EDGE('',*,*,#163,.F.);
#298=ORIENTED_EDGE('',*,*,#152,.F.);
#299=ORIENTED_EDGE('',*,*,#141,.F.);
#300=ORIENTED_EDGE('',*,*,#130,.F.);
#301=ORIENTED_EDGE('',*,*,#119,.F.);
#302=ORIENTED_EDGE('',*,*,#108,.F.);
#303=ORIENTED_EDGE('',*,*,#97,.F.);
#304=ORIENTED_EDGE('',*,*,#86,.F.);
#305=EDGE_LOOP('',(#297,#298,#299,#300,#301,#302,#303,#304));
#306=FACE_BOUND('',#305,.T.);
#307=ORIENTED_EDGE('',*,*,#184,.T.);
#308=EDGE_LOOP('',(#307));
#309=FACE_BOUND('',#308,.T.);
#310=ORIENTED_EDGE('',*,*,#205,.T.);
#311=EDGE_LOOP('',(#310));
#312=FACE_BOUND('',#311,.T.);
#313=ORIENTED_EDGE('',*,*,#286,.F.);
#314=ORIENTED_EDGE('',*,*,#275,.T.);
#315=ORIENTED_EDGE('',*,*,#264,.F.);
#316=ORIENTED_EDGE('',*,*,#253,.T.);
#317=EDGE_LOOP('',(#313,#314,#315,#316));
#318=FACE_BOUND('',#317,.T.);
#319=ADVANCED_FACE('',(#306,#309,#312,#318),#296,.F.);
#320=CARTESIAN_POINT('',(0.0,0.0,8.0));
#321=DIRECTION('',(0.0,0.0,1.0));
#322=DIRECTION('',(1.0,0.0,0.0));
#323=AXIS2_PLACEMENT_3D('',#320,#321,#322);
#324=PLANE('',#323);
#325=ORIENTED_EDGE('',*,*,#91,.T.);
#326=ORIENTED_EDGE('',*,*,#103,.T.);
#327=ORIENTED_EDGE('',*,*,#113,.T.);
#328=ORIENTED_EDGE('',*,*,#125,.T.);
#329=ORIENTED_EDGE('',*,*,#135,.T.);
#330=ORIENTED_EDGE('',*,*,#147,.T.);
#331=ORIENTED_EDGE('',*,*,#157,.T.);
#332=ORIENTED_EDGE('',*,*,#169,.T.);
#333=EDGE_LOOP('',(#325,#326,#327,#328,#329,#330,#331,#332));
#334=FACE_BOUND('',#333,.T.);
#335=ORIENTED_EDGE('',*,*,#190,.F.);
#336=EDGE_LOOP('',(#335));
#337=FACE_BOUND('',#336,.T.);
#338=ORIENTED_EDGE('',*,*,#211,.F.);
#339=EDGE_LOOP('',(#338));
#340=FACE_BOUND('',#339,.T.);
#341=ORIENTED_EDGE('',*,*,#259,.F.);
#342=ORIENTED_EDGE('',*,*,#269,.T.);
#343=ORIENTED_EDGE('',*,*,#281,.F.);
#344=ORIENTED_EDGE('',*,*,#291,.T.);
#345=EDGE_LOOP('',(#341,#342,#343,#344));
#346=FACE_BOUND('',#345,.T.);
#347=ADVANCED_FACE('',(#334,#337,#340,#346),#324,.T.);
#348=CARTESIAN_POINT('',(8.0,0.0,0.0));
#349=DIRECTION('',(0.0,-1.0,2.220446049250313E-16));
#350=DIRECTION('',(1.0,0.0,0.0));
#351=AXIS2_PLACEMENT_3D('',#348,#349,#350);
#352=PLANE('',#351);
#353=ORIENTED_EDGE('',*,*,#86,.T.);
#354=ORIENTED_EDGE('',*,*,#27,.T.);
#355=ORIENTED_EDGE('',*,*,#91,.F.);
#356=ORIENTED_EDGE('',*,*,#18,.F.);
#357=EDGE_LOOP('',(#353,#354,#355,#356));
#358=FACE_BOUND('',#357,.T.);
#359=ADVANCED_FACE('',(#358),#352,.T.);
#360=CARTESIAN_POINT('',(92.0,8.0,0.0));
#361=DIRECTION('',(0.0,0.0,1.0));
#362=DIRECTION('',(1.0,0.0,0.0));
#363=AXIS2_PLACEMENT_3D('',#360,#361,#362);
#364=CYLINDRICAL_SURFACE('',#363,8.0);
#365=ORIENTED_EDGE('',*,*,#97,.T.);
#366=ORIENTED_EDGE('',*,*,#36,.T.);
#367=ORIENTED_EDGE('',*,*,#103,.F.);
#368=ORIENTED_EDGE('',*,*,#27,.F.);
#369=EDGE_LOOP('',(#365,#366,#367,#368));
#370=FACE_BOUND('',#369,.T.);
#371=ADVANCED_FACE('',(#370),#364,.T.);
#372=CARTESIAN_POINT('',(100.0,8.0,0.0));
#373=DIRECTION('',(1.0,0.0,0.0));
#374=DIRECTION('',(0.0,1.0,0.0));
#375=AXIS2_PLACEMENT_3D('',#372,#373,#374);
#376=PLANE('',#375);
#377=ORIENTED_EDGE('',*,*,#108,.T.);
#378=ORIENTED_EDGE('',*,*,#45,.T.);
#379=ORIENTED_EDGE('',*,*,#113,.F.);
#380=ORIENTED_EDGE('',*,*,#36,.F.);
#381=EDGE_LOOP('',(#377,#378,#379,#380));
#382=FACE_BOUND('',#381,.T.);
#383=ADVANCED_FACE('',(#382),#376,.T.);
#384=CARTESIAN_POINT('',(92.0,52.0,0.0));
#385=DIRECTION('',(0.0,0.0,1.0));
#386=DIRECTION('',(1.0,0.0,0.0));
#387=AXIS2_PLACEMENT_3D('',#384,#385,#386);
#388=CYLINDRICAL_SURFACE('',#387,8.0);
#389=ORIENTED_EDGE('',*,*,#119,.T.);
#390=ORIENTED_EDGE('',*,*,#54,.T.);
#391=ORIENTED_EDGE('',*,*,#125,.F.);
#392=ORIENTED_EDGE('',*,*,#45,.F.);
#393=EDGE_LOOP('',(#389,#390,#391,#392));
#394=FACE_BOUND('',#393,.T.);
#395=ADVANCED_FACE('',(#394),#388,.T.);
#396=CARTESIAN_POINT('',(92.0,60.0,0.0));
#397=DIRECTION('',(0.0,1.0,2.220446049250313E-16));
#398=DIRECTION('',(-1.0,0.0,0.0));
#399=AXIS2_PLACEMENT_3D('',#396,#397,#398);
#400=PLANE('',#399);
#401=ORIENTED_EDGE('',*,*,#130,.T.);
#402=ORIENTED_EDGE('',*,*,#63,.T.);
#403=ORIENTED_EDGE('',*,*,#135,.F.);
#404=ORIENTED_EDGE('',*,*,#54,.F.);
#405=EDGE_LOOP('',(#401,#402,#403,#404));
#406=FACE_BOUND('',#405,.T.);
#407=ADVANCED_FACE('',(#406),#400,.T.);
#408=CARTESIAN_POINT('',(8.0,52.0,0.0));
#409=DIRECTION('',(0.0,0.0,1.0));
#410=DIRECTION('',(1.0,0.0,0.0));
#411=AXIS2_PLACEMENT_3D('',#408,#409,#410);
#412=CYLINDRICAL_SURFACE('',#411,8.0);
#413=ORIENTED_EDGE('',*,*,#141,.T.);
#414=ORIENTED_EDGE('',*,*,#72,.T.);
#415=ORIENTED_EDGE('',*,*,#147,.F.);
#416=ORIENTED_EDGE('',*,*,#63,.F.);
#417=EDGE_LOOP('',(#413,#414,#415,#416));
#418=FACE_BOUND('',#417,.T.);
#419=ADVANCED_FACE('',(#418),#412,.T.);
#420=CARTESIAN_POINT('',(0.0,52.0,0.0));
#421=DIRECTION('',(-1.0,0.0,0.0));
#422=DIRECTION('',(0.0,-1.0,0.0));
#423=AXIS2_PLACEMENT_3D('',#420,#421,#422);
#424=PLANE('',#423);
#425=ORIENTED_EDGE('',*,*,#152,.T.);
#426=ORIENTED_EDGE('',*,*,#81,.T.);
#427=ORIENTED_EDGE('',*,*,#157,.F.);
#428=ORIENTED_EDGE('',*,*,#72,.F.);
#429=EDGE_LOOP('',(#425,#426,#427,#428));
#430=FACE_BOUND('',#429,.T.);
#431=ADVANCED_FACE('',(#430),#424,.T.);
#432=CARTESIAN_POINT('',(8.0,8.0,0.0));
#433=DIRECTION('',(0.0,0.0,1.0));
#434=DIRECTION('',(1.0,0.0,0.0));
#435=AXIS2_PLACEMENT_3D('',#432,#433,#434);
#436=CYLINDRICAL_SURFACE('',#435,8.0);
#437=ORIENTED_EDGE('',*,*,#163,.T.);
#438=ORIENTED_EDGE('',*,*,#18,.T.);
#439=ORIENTED_EDGE('',*,*,#169,.F.);
#440=ORIENTED_EDGE('',*,*,#81,.F.);
#441=EDGE_LOOP('',(#437,#438,#439,#440));
#442=FACE_BOUND('',#441,.T.);
#443=ADVANCED_FACE('',(#442),#436,.T.);
#444=CARTESIAN_POINT('',(15.0,15.0,0.0));
#445=DIRECTION('',(0.0,0.0,1.0));
#446=DIRECTION('',(1.0,0.0,0.0));
#447=AXIS2_PLACEMENT_3D('',#444,#445,#446);
#448=CYLINDRICAL_SURFACE('',#447,5.0);
#449=ORIENTED_EDGE('',*,*,#184,.F.);
#450=ORIENTED_EDGE('',*,*,#178,.T.);
#451=ORIENTED_EDGE('',*,*,#190,.T.);
#452=ORIENTED_EDGE('',*,*,#178,.F.);
#453=EDGE_LOOP('',(#449,#450,#451,#452));
#454=FACE_BOUND('',#453,.T.);
#455=ADVANCED_FACE('',(#454),#448,.F.);
#456=CARTESIAN_POINT('',(15.0,45.0,0.0));
#457=DIRECTION('',(0.0,0.0,1.0));
#458=DIRECTION('',(1.0,0.0,0.0));
#459=AXIS2_PLACEMENT_3D('',#456,#457,#458);
#460=CYLINDRICAL_SURFACE('',#459,5.0);
#461=ORIENTED_EDGE('',*,*,#205,.F.);
#462=ORIENTED_EDGE('',*,*,#199,.T.);
#463=ORIENTED_EDGE('',*,*,#211,.T.);
#464=ORIENTED_EDGE('',*,*,#199,.F.);
#465=EDGE_LOOP('',(#461,#462,#463,#464));
#466=FACE_BOUND('',#465,.T.);
#467=ADVANCED_FACE('',(#466),#460,.F.);
#468=CARTESIAN_POINT('',(40.0,30.0,0.0));
#469=DIRECTION('',(0.0,0.0,1.0));
#470=DIRECTION('',(1.0,0.0,0.0));
#471=AXIS2_PLACEMENT_3D('',#468,#469,#470);
#472=CYLINDRICAL_SURFACE('',#471,5.0);
#473=ORIENTED_EDGE('',*,*,#253,.F.);
#474=ORIENTED_EDGE('',*,*,#229,.T.);
#475=ORIENTED_EDGE('',*,*,#259,.T.);
#476=ORIENTED_EDGE('',*,*,#220,.F.);
#477=EDGE_LOOP('',(#473,#474,#475,#476));
#478=FACE_BOUND('',#477,.T.);
#479=ADVANCED_FACE('',(#478),#472,.F.);
#480=CARTESIAN_POINT('',(40.0,35.0,0.0));
#481=DIRECTION('',(0.0,-1.0,2.220446049250313E-16));
#482=DIRECTION('',(1.0,0.0,0.0));
#483=AXIS2_PLACEMENT_3D('',#480,#481,#482);
#484=PLANE('',#483);
#485=ORIENTED_EDGE('',*,*,#264,.T.);
#486=ORIENTED_EDGE('',*,*,#238,.T.);
#487=ORIENTED_EDGE('',*,*,#269,.F.);
#488=ORIENTED_EDGE('',*,*,#229,.F.);
#489=EDGE_LOOP('',(#485,#486,#487,#488));
#490=FACE_BOUND('',#489,.T.);
#491=ADVANCED_FACE('',(#490),#484,.T.);
#492=CARTESIAN_POINT('',(70.0,30.0,0.0));
#493=DIRECTION('',(0.0,0.0,1.0));
#494=DIRECTION('',(1.0,0.0,0.0));
#495=AXIS2_PLACEMENT_3D('',#492,#493,#494);
#496=CYLINDRICAL_SURFACE('',#495,5.0);
#497=ORIENTED_EDGE('',*,*,#275,.F.);
#498=ORIENTED_EDGE('',*,*,#247,.T.);
#499=ORIENTED_EDGE('',*,*,#281,.T.);
#500=ORIENTED_EDGE('',*,*,#238,.F.);
#501=EDGE_LOOP('',(#497,#498,#499,#500));
#502=FACE_BOUND('',#501,.T.);
#503=ADVANCED_FACE('',(#502),#496,.F.);
#504=CARTESIAN_POINT('',(70.0,25.0,0.0));
#505=DIRECTION('',(0.0,1.0,2.220446049250313E-16));
#506=DIRECTION('',(-1.0,0.0,0.0));
#507=AXIS2_PLACEMENT_3D('',#504,#505,#506);
#508=PLANE('',#507);
#509=ORIENTED_EDGE('',*,*,#286,.T.);
#510=ORIENTED_EDGE('',*,*,#220,.T.);
#511=ORIENTED_EDGE('',*,*,#291,.F.);
#512=ORIENTED_EDGE('',*,*,#247,.F.);
#513=EDGE_LOOP('',(#509,#510,#511,#512));
#514=FACE_BOUND('',#513,.T.);
#515=ADVANCED_FACE('',(#514),#508,.T.);
#516=CLOSED_SHELL('',(#319,#347,#359,#371,#383,#395,#407,#419,#431,#443,#455,#467,#479,#491,#503,#515));
#517=MANIFOLD_SOLID_BREP('bracket',#516);
#518=CARTESIAN_POINT('',(0.0,0.0,0.0));
#519=DIRECTION('',(0.0,0.0,1.0));
#520=DIRECTION('',(1.0,0.0,0.0));
#521=AXIS2_PLACEMENT_3D('',#518,#519,#520);
#522=ADVANCED_BREP_SHAPE_REPRESENTATION('bracket',(#517,#521),#5);
#523=PRODUCT('bracket','bracket','',(#8));
#524=PRODUCT_DEFINITION_FORMATION('','',#523);
#525=PRODUCT_DEFINITION('design','',#524,#9);
#526=PRODUCT_DEFINITION_SHAPE('','',#525);
#527=SHAPE_DEFINITION_REPRESENTATION(#526,#522);
#528=CARTESIAN_POINT('',(140.0,60.0,-15.0));
#529=VERTEX_POINT('',#528);
#530=CARTESIAN_POINT('',(140.0,60.0,0.0));
#531=VERTEX_POINT('',#530);
#532=CARTESIAN_POINT('',(140.0,60.0,-15.0));
#533=DIRECTION('',(0.0,0.0,1.0));
#534=VECTOR('',#533,1.0);
#535=LINE('',#532,#534);
#536=EDGE_CURVE('',#529,#531,#535,.T.);
#537=CARTESIAN_POINT('',(132.94657697249033,39.70820393249937,-15.0));
#538=VERTEX_POINT('',#537);
#539=CARTESIAN_POINT('',(132.94657697249033,39.70820393249937,0.0));
#540=VERTEX_POINT('',#539);
#541=CARTESIAN_POINT('',(132.94657697249033,39.70820393249937,-15.0));
#542=DIRECTION('',(0.0,0.0,1.0));
#543=VECTOR('',#542,1.0);
#544=LINE('',#541,#543);
#545=EDGE_CURVE('',#538,#540,#544,.T.);
#546=CARTESIAN_POINT('',(111.46830451114539,39.270509831248425,-15.0));
#547=VERTEX_POINT('',#546);
#548=CARTESIAN_POINT('',(111.46830451114539,39.270509831248425,0.0));
#549=VERTEX_POINT('',#548);
#550=CARTESIAN_POINT('',(111.46830451114539,39.270509831248425,-15.0));
#551=DIRECTION('',(0.0,0.0,1.0));
#552=VECTOR('',#551,1.0);
#553=LINE('',#550,#552);
#554=EDGE_CURVE('',#547,#549,#553,.T.);
#555=CARTESIAN_POINT('',(128.58732180445816,26.291796067500634,-15.0));
#556=VERTEX_POINT('',#555);
#557=CARTESIAN_POINT('',(128.58732180445816,26.291796067500634,0.0));
#558=VERTEX_POINT('',#557);
#559=CARTESIAN_POINT('',(128.58732180445816,26.291796067500634,-15.0));
#560=DIRECTION('',(0.0,0.0,1.0));
#561=VECTOR('',#560,1.0);
#562=LINE('',#559,#561);
#563=EDGE_CURVE('',#556,#558,#562,.T.);
#564=CARTESIAN_POINT('',(122.3664424312258,5.729490168751578,-15.0));
#565=VERTEX_POINT('',#564);
#566=CARTESIAN_POINT('',(122.3664424312258,5.729490168751578,0.0));
#567=VERTEX_POINT('',#566);
#568=CARTESIAN_POINT('',(122.3664424312258,5.729490168751578,-15.0));
#569=DIRECTION('',(0.0,0.0,1.0));
#570=VECTOR('',#569,1.0);
#571=LINE('',#568,#570);
#572=EDGE_CURVE('',#565,#567,#571,.T.);
#573=CARTESIAN_POINT('',(140.0,18.0,-15.0));
#574=VERTEX_POINT('',#573);
#575=CARTESIAN_POINT('',(140.0,18.0,0.0));
#576=VERTEX_POINT('',#575);
#577=CARTESIAN_POINT('',(140.0,18.0,-15.0));
#578=DIRECTION('',(0.0,0.0,1.0));
#579=VECTOR('',#578,1.0);
#580=LINE('',#577,#579);
#581=EDGE_CURVE('',#574,#576,#580,.T.);
#582=CARTESIAN_POINT('',(157.6335575687742,5.729490168751575,-15.0));
#583=VERTEX_POINT('',#582);
#584=CARTESIAN_POINT('',(157.6335575687742,5.729490168751575,0.0));
#585=VERTEX_POINT('',#584);
#586=CARTESIAN_POINT('',(157.6335575687742,5.729490168751575,-15.0));
#587=DIRECTION('',(0.0,0.0,1.0));
#588=VECTOR('',#587,1.0);
#589=LINE('',#586,#588);
#590=EDGE_CURVE('',#583,#585,#589,.T.);
#591=CARTESIAN_POINT('',(151.41267819554184,26.291796067500627,-15.0));
#592=VERTEX_POINT('',#591);
#593=CARTESIAN_POINT('',(151.41267819554184,26.291796067500627,0.0));
#594=VERTEX_POINT('',#593);
#595=CARTESIAN_POINT('',(151.41267819554184,26.291796067500627,-15.0));
#596=DIRECTION('',(0.0,0.0,1.0));
#597=VECTOR('',#596,1.0);
#598=LINE('',#595,#597);
#599=EDGE_CURVE('',#592,#594,#598,.T.);
#600=CARTESIAN_POINT('',(168.5316954888546,39.27050983124842,-15.0));
#601=VERTEX_POINT('',#600);
#602=CARTESIAN_POINT('',(168.5316954888546,39.27050983124842,0.0));
#603=VERTEX_POINT('',#602);
#604=CARTESIAN_POINT('',(168.5316954888546,39.27050983124842,-15.0));
#605=DIRECTION('',(0.0,0.0,1.0));
#606=VECTOR('',#605,1.0);
#607=LINE('',#604,#606);
#608=EDGE_CURVE('',#601,#603,#607,.T.);
#609=CARTESIAN_POINT('',(147.05342302750967,39.708203932499366,-15.0));
#610=VERTEX_POINT('',#609);
#611=CARTESIAN_POINT('',(147.05342302750967,39.708203932499366,0.0));
#612=VERTEX_POINT('',#611);
#613=CARTESIAN_POINT('',(147.05342302750967,39.708203932499366,-15.0));
#614=DIRECTION('',(0.0,0.0,1.0));
#615=VECTOR('',#614,1.0);
#616=LINE('',#613,#615);
#617=EDGE_CURVE('',#610,#612,#616,.T.);
#618=CARTESIAN_POINT('',(140.0,60.0,-15.0));
#619=DIRECTION('',(-0.32832989328122697,-0.9445631165665629,0.0));
#620=VECTOR('',#619,0.9999999999999999);
#621=LINE('',#618,#620);
#622=EDGE_CURVE('',#529,#538,#621,.T.);
#623=CARTESIAN_POINT('',(140.0,60.0,0.0));
#624=DIRECTION('',(-0.32832989328122697,-0.9445631165665629,0.0));
#625=VECTOR('',#624,0.9999999999999999);
#626=LINE('',#623,#625);
#627=EDGE_CURVE('',#531,#540,#626,.T.);
#628=CARTESIAN_POINT('',(132.94657697249033,39.70820393249937,-15.0));
#629=DIRECTION('',(-0.9997924238479003,-0.020374229220770756,0.0));
#630=VECTOR('',#629,1.0);
#631=LINE('',#628,#630);
#632=EDGE_CURVE('',#538,#547,#631,.T.);
#633=CARTESIAN_POINT('',(132.94657697249033,39.70820393249937,0.0));
#634=DIRECTION('',(-0.9997924238479003,-0.020374229220770756,0.0));
#635=VECTOR('',#634,1.0);
#636=LINE('',#633,#635);
#637=EDGE_CURVE('',#540,#549,#636,.T.);
#638=CARTESIAN_POINT('',(111.46830451114539,39.270509831248425,-15.0));
#639=DIRECTION('',(0.7968733902774763,-0.6041463397784357,0.0));
#640=VECTOR('',#639,0.9999999999999999);
#641=LINE('',#638,#640);
#642=EDGE_CURVE('',#547,#556,#641,.T.);
#643=CARTESIAN_POINT('',(111.46830451114539,39.270509831248425,0.0));
#644=DIRECTION('',(0.7968733902774763,-0.6041463397784357,0.0));
#645=VECTOR('',#644,0.9999999999999999);
#646=LINE('',#643,#645);
#647=EDGE_CURVE('',#549,#558,#646,.T.);
#648=CARTESIAN_POINT('',(128.58732180445816,26.291796067500634,-15.0));
#649=DIRECTION('',(-0.28957580635141655,-0.9571550827195805,0.0));
#650=VECTOR('',#649,0.9999999999999999);
#651=LINE('',#648,#650);
#652=EDGE_CURVE('',#556,#565,#651,.T.);
#653=CARTESIAN_POINT('',(128.58732180445816,26.291796067500634,0.0));
#654=DIRECTION('',(-0.28957580635141655,-0.9571550827195805,0.0));
#655=VECTOR('',#654,0.9999999999999999);
#656=LINE('',#653,#655);
#657=EDGE_CURVE('',#558,#567,#656,.T.);
#658=CARTESIAN_POINT('',(122.3664424312258,5.729490168751578,-15.0));
#659=DIRECTION('',(0.8208247332030674,0.571180144404647,0.0));
#660=VECTOR('',#659,1.0);
#661=LINE('',#658,#660);
#662=EDGE_CURVE('',#565,#574,#661,.T.);
#663=CARTESIAN_POINT('',(122.3664424312258,5.729490168751578,0.0));
#664=DIRECTION('',(0.8208247332030674,0.571180144404647,0.0));
#665=VECTOR('',#664,1.0);
#666=LINE('',#663,#665);
#667=EDGE_CURVE('',#567,#576,#666,.T.);
#668=CARTESIAN_POINT('',(140.0,18.0,-15.0));
#669=DIRECTION('',(0.8208247332030671,-0.5711801444046473,0.0));
#670=VECTOR('',#669,1.0);
#671=LINE('',#668,#670);
#672=EDGE_CURVE('',#574,#583,#671,.T.);
#673=CARTESIAN_POINT('',(140.0,18.0,0.0));
#674=DIRECTION('',(0.8208247332030671,-0.5711801444046473,0.0));
#675=VECTOR('',#674,1.0);
#676=LINE('',#673,#675);
#677=EDGE_CURVE('',#576,#585,#676,.T.);
#678=CARTESIAN_POINT('',(157.6335575687742,5.729490168751575,-15.0));
#679=DIRECTION('',(-0.2895758063514161,0.9571550827195806,0.0));
#680=VECTOR('',#679,1.0);
#681=LINE('',#678,#680);
#682=EDGE_CURVE('',#583,#592,#681,.T.);
#683=CARTESIAN_POINT('',(157.6335575687742,5.729490168751575,0.0));
#684=DIRECTION('',(-0.2895758063514161,0.9571550827195806,0.0));
#685=VECTOR('',#684,1.0);
#686=LINE('',#683,#685);
#687=EDGE_CURVE('',#585,#594,#686,.T.);
#688=CARTESIAN_POINT('',(151.41267819554184,26.291796067500627,-15.0));
#689=DIRECTION('',(0.7968733902774765,0.6041463397784353,0.0));
#690=VECTOR('',#689,1.0);
#691=LINE('',#688,#690);
#692=EDGE_CURVE('',#592,#601,#691,.T.);
#693=CARTESIAN_POINT('',(151.41267819554184,26.291796067500627,0.0));
#694=DIRECTION('',(0.7968733902774765,0.6041463397784353,0.0));
#695=VECTOR('',#694,1.0);
#696=LINE('',#693,#695);
#697=EDGE_CURVE('',#594,#603,#696,.T.);
#698=CARTESIAN_POINT('',(168.5316954888546,39.27050983124842,-15.0));
#699=DIRECTION('',(-0.9997924238479003,0.02037422922077109,0.0));
#700=VECTOR('',#699,1.0);
#701=LINE('',#698,#700);
#702=EDGE_CURVE('',#601,#610,#701,.T.);
#703=CARTESIAN_POINT('',(168.5316954888546,39.27050983124842,0.0));
#704=DIRECTION('',(-0.9997924238479003,0.02037422922077109,0.0));
#705=VECTOR('',#704,1.0);
#706=LINE('',#703,#705);
#707=EDGE_CURVE('',#603,#612,#706,.T.);
#708=CARTESIAN_POINT('',(147.05342302750967,39.708203932499366,-15.0));
#709=DIRECTION('',(-0.32832989328122697,0.9445631165665629,0.0));
#710=VECTOR('',#709,0.9999999999999999);
#711=LINE('',#708,#710);
#712=EDGE_CURVE('',#610,#529,#711,.T.);
#713=CARTESIAN_POINT('',(147.05342302750967,39.708203932499366,0.0));
#714=DIRECTION('',(-0.32832989328122697,0.9445631165665629,0.0));
#715=VECTOR('',#714,0.9999999999999999);
#716=LINE('',#713,#715);
#717=EDGE_CURVE('',#612,#531,#716,.T.);
#718=CARTESIAN_POINT('',(140.0,30.0,-15.0));
#719=DIRECTION('',(0.0,0.0,1.0));
#720=DIRECTION('',(1.0,0.0,0.0));
#721=AXIS2_PLACEMENT_3D('',#718,#719,#720);
#722=PLANE('',#721);
#723=ORIENTED_EDGE('',*,*,#712,.F.);
#724=ORIENTED_EDGE('',*,*,#702,.F.);
#725=ORIENTED_EDGE('',*,*,#692,.F.);
#726=ORIENTED_EDGE('',*,*,#682,.F.);
#727=ORIENTED_EDGE('',*,*,#672,.F.);
#728=ORIENTED_EDGE('',*,*,#662,.F.);
#729=ORIENTED_EDGE('',*,*,#652,.F.);
#730=ORIENTED_EDGE('',*,*,#642,.F.);
#731=ORIENTED_EDGE('',*,*,#632,.F.);
#732=ORIENTED_EDGE('',*,*,#622,.F.);
#733=EDGE_LOOP('',(#723,#724,#725,#726,#727,#728,#729,#730,#731,#732));
#734=FACE_BOUND('',#733,.T.);
#735=ADVANCED_FACE('',(#734),#722,.F.);
#736=CARTESIAN_POINT('',(140.0,30.0,0.0));
#737=DIRECTION('',(0.0,0.0,1.0));
#738=DIRECTION('',(1.0,0.0,0.0));
#739=AXIS2_PLACEMENT_3D('',#736,#737,#738);
#740=PLANE('',#739);
#741=ORIENTED_EDGE('',*,*,#627,.T.);
#742=ORIENTED_EDGE('',*,*,#637,.T.);
#743=ORIENTED_EDGE('',*,*,#647,.T.);
#744=ORIENTED_EDGE('',*,*,#657,.T.);
#745=ORIENTED_EDGE('',*,*,#667,.T.);
#746=ORIENTED_EDGE('',*,*,#677,.T.);
#747=ORIENTED_EDGE('',*,*,#687,.T.);
#748=ORIENTED_EDGE('',*,*,#697,.T.);
#749=ORIENTED_EDGE('',*,*,#707,.T.);
#750=ORIENTED_EDGE('',*,*,#717,.T.);
#751=EDGE_LOOP('',(#741,#742,#743,#744,#745,#746,#747,#748,#749,#750));
#752=FACE_BOUND('',#751,.T.);
#753=ADVANCED_FACE('',(#752),#740,.T.);
#754=CARTESIAN_POINT('',(140.0,60.0,-15.0));
#755=DIRECTION('',(-0.9445631165665628,0.328329893281227,-2.2204460492503126E-16));
#756=DIRECTION('',(-0.328329893281227,-0.9445631165665628,2.2204460492503126E-16));
#757=AXIS2_PLACEMENT_3D('',#754,#755,#756);
#758=PLANE('',#757);
#759=ORIENTED_EDGE('',*,*,#622,.T.);
#760=ORIENTED_EDGE('',*,*,#545,.T.);
#761=ORIENTED_EDGE('',*,*,#627,.F.);
#762=ORIENTED_EDGE('',*,*,#536,.F.);
#763=EDGE_LOOP('',(#759,#760,#761,#762));
#764=FACE_BOUND('',#763,.T.);
#765=ADVANCED_FACE('',(#764),#758,.T.);
#766=CARTESIAN_POINT('',(132.94657697249033,39.70820393249937,-15.0));
#767=DIRECTION('',(-0.020374229220770753,0.9997924238479002,0.0));
#768=DIRECTION('',(-0.9997924238479003,-0.020374229220770756,0.0));
#769=AXIS2_PLACEMENT_3D('',#766,#767,#768);
#770=PLANE('',#769);
#771=ORIENTED_EDGE('',*,*,#632,.T.);
#772=ORIENTED_EDGE('',*,*,#554,.T.);
#773=ORIENTED_EDGE('',*,*,#637,.F.);
#774=ORIENTED_EDGE('',*,*,#545,.F.);
#775=EDGE_LOOP('',(#771,#772,#773,#774));
#776=FACE_BOUND('',#775,.T.);
#777=ADVANCED_FACE('',(#776),#770,.T.);
#778=CARTESIAN_POINT('',(111.46830451114539,39.270509831248425,-15.0));
#779=DIRECTION('',(-0.6041463397784357,-0.7968733902774763,0.0));
#780=DIRECTION('',(0.7968733902774763,-0.6041463397784357,0.0));
#781=AXIS2_PLACEMENT_3D('',#778,#779,#780);
#782=PLANE('',#781);
#783=ORIENTED_EDGE('',*,*,#642,.T.);
#784=ORIENTED_EDGE('',*,*,#563,.T.);
#785=ORIENTED_EDGE('',*,*,#647,.F.);
#786=ORIENTED_EDGE('',*,*,#554,.F.);
#787=EDGE_LOOP('',(#783,#784,#785,#786));
#788=FACE_BOUND('',#787,.T.);
#789=ADVANCED_FACE('',(#788),#782,.T.);
#790=CARTESIAN_POINT('',(128.58732180445816,26.291796067500634,-15.0));
#791=DIRECTION('',(-0.9571550827195805,0.28957580635141644,1.1102230246251565E-16));
#792=DIRECTION('',(-0.28957580635141644,-0.9571550827195805,-5.551115123125783E-17));
#793=AXIS2_PLACEMENT_3D('',#790,#791,#792);
#794=PLANE('',#793);
#795=ORIENTED_EDGE('',*,*,#652,.T.);
#796=ORIENTED_EDGE('',*,*,#572,.T.);
#797=ORIENTED_EDGE('',*,*,#657,.F.);
#798=ORIENTED_EDGE('',*,*,#563,.F.);
#799=EDGE_LOOP('',(#795,#796,#797,#798));
#800=FACE_BOUND('',#799,.T.);
#801=ADVANCED_FACE('',(#800),#794,.T.);
#802=CARTESIAN_POINT('',(122.3664424312258,5.729490168751578,-15.0));
#803=DIRECTION('',(0.5711801444046471,-0.8208247332030674,-1.1102230246251565E-16));
#804=DIRECTION('',(0.8208247332030674,0.5711801444046471,5.551115123125783E-17));
#805=AXIS2_PLACEMENT_3D('',#802,#803,#804);
#806=PLANE('',#805);
#807=ORIENTED_EDGE('',*,*,#662,.T.);
#808=ORIENTED_EDGE('',*,*,#581,.T.);
#809=ORIENTED_EDGE('',*,*,#667,.F.);
#810=ORIENTED_EDGE('',*,*,#572,.F.);
#811=EDGE_LOOP('',(#807,#808,#809,#810));
#812=FACE_BOUND('',#811,.T.);
#813=ADVANCED_FACE('',(#812),#806,.T.);
#814=CARTESIAN_POINT('',(140.0,18.0,-15.0));
#815=DIRECTION('',(-0.5711801444046473,-0.8208247332030673,0.0));
#816=DIRECTION('',(0.8208247332030673,-0.5711801444046473,0.0));
#817=AXIS2_PLACEMENT_3D('',#814,#815,#816);
#818=PLANE('',#817);
#819=ORIENTED_EDGE('',*,*,#672,.T.);
#820=ORIENTED_EDGE('',*,*,#590,.T.);
#821=ORIENTED_EDGE('',*,*,#677,.F.);
#822=ORIENTED_EDGE('',*,*,#581,.F.);
#823=EDGE_LOOP('',(#819,#820,#821,#822));
#824=FACE_BOUND('',#823,.T.);
#825=ADVANCED_FACE('',(#824),#818,.T.);
#826=CARTESIAN_POINT('',(157.6335575687742,5.729490168751575,-15.0));
#827=DIRECTION('',(0.9571550827195806,0.2895758063514161,1.665334536937735E-16));
#828=DIRECTION('',(-0.28957580635141605,0.9571550827195806,1.1102230246251568E-16));
#829=AXIS2_PLACEMENT_3D('',#826,#827,#828);
#830=PLANE('',#829);
#831=ORIENTED_EDGE('',*,*,#682,.T.);
#832=ORIENTED_EDGE('',*,*,#599,.T.);
#833=ORIENTED_EDGE('',*,*,#687,.F.);
#834=ORIENTED_EDGE('',*,*,#590,.F.);
#835=EDGE_LOOP('',(#831,#832,#833,#834));
#836=FACE_BOUND('',#835,.T.);
#837=ADVANCED_FACE('',(#836),#830,.T.);
#838=CARTESIAN_POINT('',(151.41267819554184,26.291796067500627,-15.0));
#839=DIRECTION('',(0.6041463397784353,-0.7968733902774764,-1.6653345369377346E-16));
#840=DIRECTION('',(0.7968733902774765,0.6041463397784355,5.551115123125783E-17));
#841=AXIS2_PLACEMENT_3D('',#838,#839,#840);
#842=PLANE('',#841);
#843=ORIENTED_EDGE('',*,*,#692,.T.);
#844=ORIENTED_EDGE('',*,*,#608,.T.);
#845=ORIENTED_EDGE('',*,*,#697,.F.);
#846=ORIENTED_EDGE('',*,*,#599,.F.);
#847=EDGE_LOOP('',(#843,#844,#845,#846));
#848=FACE_BOUND('',#847,.T.);
#849=ADVANCED_FACE('',(#848),#842,.T.);
#850=CARTESIAN_POINT('',(168.5316954888546,39.27050983124842,-15.0));
#851=DIRECTION('',(0.020374229220771086,0.9997924238479002,0.0));
#852=DIRECTION('',(-0.9997924238479003,0.02037422922077109,0.0));
#853=AXIS2_PLACEMENT_3D('',#850,#851,#852);
#854=PLANE('',#853);
#855=ORIENTED_EDGE('',*,*,#702,.T.);
#856=ORIENTED_EDGE('',*,*,#617,.T.);
#857=ORIENTED_EDGE('',*,*,#707,.F.);
#858=ORIENTED_EDGE('',*,*,#608,.F.);
#859=EDGE_LOOP('',(#855,#856,#857,#858));
#860=FACE_BOUND('',#859,.T.);
#861=ADVANCED_FACE('',(#860),#854,.T.);
#862=CARTESIAN_POINT('',(147.05342302750967,39.708203932499366,-15.0));
#863=DIRECTION('',(0.9445631165665628,0.328329893281227,-2.2204460492503126E-16));
#864=DIRECTION('',(-0.328329893281227,0.9445631165665628,-2.2204460492503126E-16));
#865=AXIS2_PLACEMENT_3D('',#862,#863,#864);
#866=PLANE('',#865);
#867=ORIENTED_EDGE('',*,*,#712,.T.);
#868=ORIENTED_EDGE('',*,*,#536,.T.);
#869=ORIENTED_EDGE('',*,*,#717,.F.);
#870=ORIENTED_EDGE('',*,*,#617,.F.);
#871=EDGE_LOOP('',(#867,#868,#869,#870));
#872=FACE_BOUND('',#871,.T.);
#873=ADVANCED_FACE('',(#872),#866,.T.);
#874=CLOSED_SHELL('',(#735,#753,#765,#777,#789,#801,#813,#825,#837,#849,#861,#873));
#875=MANIFOLD_SOLID_BREP('star prism',#874);
#876=CARTESIAN_POINT('',(0.0,0.0,0.0));
#877=DIRECTION('',(0.0,0.0,1.0));
#878=DIRECTION('',(1.0,0.0,0.0));
#879=AXIS2_PLACEMENT_3D('',#876,#877,#878);
#880=ADVANCED_BREP_SHAPE_REPRESENTATION('star prism',(#875,#879),#5);
#881=PRODUCT('star prism','star prism','',(#8));
#882=PRODUCT_DEFINITION_FORMATION('','',#881);
#883=PRODUCT_DEFINITION('design','',#882,#9);
#884=PRODUCT_DEFINITION_SHAPE('','',#883);
#885=SHAPE_DEFINITION_REPRESENTATION(#884,#880);
#886=CARTESIAN_POINT('',(8.0,120.0,0.0));
#887=VERTEX_POINT('',#886);
#888=CARTESIAN_POINT('',(0.0,120.0,0.0));
#889=DIRECTION('',(0.0,2.220446049250313E-16,1.0));
#890=DIRECTION('',(1.0,0.0,-0.0));
#891=AXIS2_PLACEMENT_3D('',#888,#889,#890);
#892=CIRCLE('',#891,8.0);
#893=EDGE_CURVE('',#887,#887,#892,.T.);
#894=CARTESIAN_POINT('',(35.0,120.0,0.0));
#895=VERTEX_POINT('',#894);
#896=CARTESIAN_POINT('',(0.0,120.0,0.0));
#897=DIRECTION('',(0.0,2.220446049250313E-16,1.0));
#898=DIRECTION('',(1.0,0.0,-0.0));
#899=AXIS2_PLACEMENT_3D('',#896,#897,#898);
#900=CIRCLE('',#899,35.0);
#901=EDGE_CURVE('',#895,#895,#900,.T.);
#902=CARTESIAN_POINT('',(35.0,120.0,4.0));
#903=VERTEX_POINT('',#902);
#904=CARTESIAN_POINT('',(0.0,120.0,4.0));
#905=DIRECTION('',(0.0,2.220446049250313E-16,1.0));
#906=DIRECTION('',(1.0,0.0,-0.0));
#907=AXIS2_PLACEMENT_3D('',#904,#905,#906);
#908=CIRCLE('',#907,35.0);
#909=EDGE_CURVE('',#903,#903,#908,.T.);
#910=CARTESIAN_POINT('',(35.0,120.0,0.0));
#911=DIRECTION('',(0.0,2.220446049250313E-16,1.0));
#912=VECTOR('',#911,1.0);
#913=LINE('',#910,#912);
#914=EDGE_CURVE('',#895,#903,#913,.T.);
#915=CARTESIAN_POINT('',(35.0,120.0,16.0));
#916=VERTEX_POINT('',#915);
#917=CARTESIAN_POINT('',(0.0,120.0,16.0));
#918=DIRECTION('',(0.0,2.220446049250313E-16,1.0));
#919=DIRECTION('',(1.0,0.0,-0.0));
#920=AXIS2_PLACEMENT_3D('',#917,#918,#919);
#921=CIRCLE('',#920,35.0);
#922=EDGE_CURVE('',#916,#916,#921,.T.);
#923=CARTESIAN_POINT('',(35.0,120.0,10.0));
#924=DIRECTION('',(0.0,-1.0,2.220446049250313E-16));
#925=DIRECTION('',(1.0,0.0,0.0));
#926=AXIS2_PLACEMENT_3D('',#923,#924,#925);
#927=CIRCLE('',#926,6.0);
#928=EDGE_CURVE('',#916,#903,#927,.T.);
#929=CARTESIAN_POINT('',(35.0,120.0,20.0));
#930=VERTEX_POINT('',#929);
#931=CARTESIAN_POINT('',(0.0,120.0,20.0));
#932=DIRECTION('',(0.0,2.220446049250313E-16,1.0));
#933=DIRECTION('',(1.0,0.0,-0.0));
#934=AXIS2_PLACEMENT_3D('',#931,#932,#933);
#935=CIRCLE('',#934,35.0);
#936=EDGE_CURVE('',#930,#930,#935,.T.);
#937=CARTESIAN_POINT('',(35.0,120.0,16.0));
#938=DIRECTION('',(0.0,2.220446049250313E-16,1.0));
#939=VECTOR('',#938,1.0);
#940=LINE('',#937,#939);
#941=EDGE_CURVE('',#916,#930,#940,.T.);
#942=CARTESIAN_POINT('',(8.0,120.0,20.0));
#943=VERTEX_POINT('',#942);
#944=CARTESIAN_POINT('',(0.0,120.0,20.0));
#945=DIRECTION('',(0.0,2.220446049250313E-16,1.0));
#946=DIRECTION('',(1.0,0.0,-0.0));
#947=AXIS2_PLACEMENT_3D('',#944,#945,#946);
#948=CIRCLE('',#947,8.0);
#949=EDGE_CURVE('',#943,#943,#948,.T.);
#950=CARTESIAN_POINT('',(8.0,120.0,20.0));
#951=DIRECTION('',(0.0,-2.220446049250313E-16,-1.0));
#952=VECTOR('',#951,1.0);
#953=LINE('',#950,#952);
#954=EDGE_CURVE('',#943,#887,#953,.T.);
#955=CARTESIAN_POINT('',(0.0,120.0,0.0));
#956=DIRECTION('',(0.0,2.220446049250313E-16,1.0));
#957=DIRECTION('',(1.0,0.0,-0.0));
#958=AXIS2_PLACEMENT_3D('',#955,#956,#957);
#959=PLANE('',#958);
#960=ORIENTED_EDGE('',*,*,#893,.T.);
#961=EDGE_LOOP('',(#960));
#962=FACE_BOUND('',#961,.T.);
#963=ORIENTED_EDGE('',*,*,#901,.F.);
#964=EDGE_LOOP('',(#963));
#965=FACE_BOUND('',#964,.T.);
#966=ADVANCED_FACE('',(#962,#965),#959,.F.);
#967=CARTESIAN_POINT('',(0.0,120.0,0.0));
#968=DIRECTION('',(0.0,2.220446049250313E-16,1.0));
#969=DIRECTION('',(1.0,0.0,-0.0));
#970=AXIS2_PLACEMENT_3D('',#967,#968,#969);
#971=CYLINDRICAL_SURFACE('',#970,35.0);
#972=ORIENTED_EDGE('',*,*,#901,.T.);
#973=ORIENTED_EDGE('',*,*,#914,.T.);
#974=ORIENTED_EDGE('',*,*,#909,.F.);
#975=ORIENTED_EDGE('',*,*,#914,.F.);
#976=EDGE_LOOP('',(#972,#973,#974,#975));
#977=FACE_BOUND('',#976,.T.);
#978=ADVANCED_FACE('',(#977),#971,.T.);
#979=CARTESIAN_POINT('',(0.0,120.0,10.0));
#980=DIRECTION('',(0.0,2.220446049250313E-16,1.0));
#981=DIRECTION('',(1.0,0.0,-0.0));
#982=AXIS2_PLACEMENT_3D('',#979,#980,#981);
#983=TOROIDAL_SURFACE('',#982,35.0,6.0);
#984=ORIENTED_EDGE('',*,*,#909,.T.);
#985=ORIENTED_EDGE('',*,*,#928,.F.);
#986=ORIENTED_EDGE('',*,*,#922,.F.);
#987=ORIENTED_EDGE('',*,*,#928,.T.);
#988=EDGE_LOOP('',(#984,#985,#986,#987));
#989=FACE_BOUND('',#988,.T.);
#990=ADVANCED_FACE('',(#989),#983,.F.);
#991=CARTESIAN_POINT('',(0.0,120.0,0.0));
#992=DIRECTION('',(0.0,2.220446049250313E-16,1.0));
#993=DIRECTION('',(1.0,0.0,-0.0));
#994=AXIS2_PLACEMENT_3D('',#991,#992,#993);
#995=CYLINDRICAL_SURFACE('',#994,35.0);
#996=ORIENTED_EDGE('',*,*,#922,.T.);
#997=ORIENTED_EDGE('',*,*,#941,.T.);
#998=ORIENTED_EDGE('',*,*,#936,.F.);
#999=ORIENTED_EDGE('',*,*,#941,.F.);
#1000=EDGE_LOOP('',(#996,#997,#998,#999));
#1001=FACE_BOUND('',#1000,.T.);
#1002=ADVANCED_FACE('',(#1001),#995,.T.);
#1003=CARTESIAN_POINT('',(0.0,120.0,20.0));
#1004=DIRECTION('',(0.0,2.220446049250313E-16,1.0));
#1005=DIRECTION('',(1.0,0.0,-0.0));
#1006=AXIS2_PLACEMENT_3D('',#1003,#1004,#1005);
#1007=PLANE('',#1006);
#1008=ORIENTED_EDGE('',*,*,#936,.T.);
#1009=EDGE_LOOP('',(#1008));
#1010=FACE_BOUND('',#1009,.T.);
#1011=ORIENTED_EDGE('',*,*,#949,.F.);
#1012=EDGE_LOOP('',(#1011));
#1013=FACE_BOUND('',#1012,.T.);
#1014=ADVANCED_FACE('',(#1010,#1013),#1007,.T.);
#1015=CARTESIAN_POINT('',(0.0,120.0,0.0));
#1016=DIRECTION('',(0.0,2.220446049250313E-16,1.0));
#1017=DIRECTION('',(1.0,0.0,-0.0));
#1018=AXIS2_PLACEMENT_3D('',#1015,#1016,#1017);
#1019=CYLINDRICAL_SURFACE('',#1018,8.0);
#1020=ORIENTED_EDGE('',*,*,#949,.T.);
#1021=ORIENTED_EDGE('',*,*,#954,.T.);
#1022=ORIENTED_EDGE('',*,*,#893,.F.);
#1023=ORIENTED_EDGE('',*,*,#954,.F.);
#1024=EDGE_LOOP('',(#1020,#1021,#1022,#1023));
#1025=FACE_BOUND('',#1024,.T.);
#1026=ADVANCED_FACE('',(#1025),#1019,.F.);
#1027=CLOSED_SHELL('',(#966,#978,#990,#1002,#1014,#1026));
#1028=MANIFOLD_SOLID_BREP('pulley',#1027);
#1029=CARTESIAN_POINT('',(0.0,0.0,0.0));
#1030=DIRECTION('',(0.0,0.0,1.0));
#1031=DIRECTION('',(1.0,0.0,0.0));
#1032=AXIS2_PLACEMENT_3D('',#1029,#1030,#1031);
#1033=ADVANCED_BREP_SHAPE_REPRESENTATION('pulley',(#1028,#1032),#5);
#1034=PRODUCT('pulley','pulley','',(#8));
#1035=PRODUCT_DEFINITION_FORMATION('','',#1034);
#1036=PRODUCT_DEFINITION('design','',#1035,#9);
#1037=PRODUCT_DEFINITION_SHAPE('','',#1036);
#1038=SHAPE_DEFINITION_REPRESENTATION(#1037,#1033);
#1039=CARTESIAN_POINT('',(130.0,120.0,0.0));
#1040=VERTEX_POINT('',#1039);
#1041=CARTESIAN_POINT('',(110.0,120.0,0.0));
#1042=DIRECTION('',(0.0,2.220446049250313E-16,1.0));
#1043=DIRECTION('',(1.0,0.0,-0.0));
#1044=AXIS2_PLACEMENT_3D('',#1041,#1042,#1043);
#1045=CIRCLE('',#1044,20.0);
#1046=EDGE_CURVE('',#1040,#1040,#1045,.T.);
#1047=CARTESIAN_POINT('',(130.0,120.00000000000001,49.99999999999999));
#1048=VERTEX_POINT('',#1047);
#1049=CARTESIAN_POINT('',(110.0,120.00000000000001,49.99999999999999));
#1050=DIRECTION('',(0.0,2.220446049250313E-16,1.0));
#1051=DIRECTION('',(1.0,0.0,-0.0));
#1052=AXIS2_PLACEMENT_3D('',#1049,#1050,#1051);
#1053=CIRCLE('',#1052,20.000000000000007);
#1054=EDGE_CURVE('',#1048,#1048,#1053,.T.);
#1055=CARTESIAN_POINT('',(110.0,120.0,25.0));
#1056=DIRECTION('',(0.0,-1.0,2.220446049250313E-16));
#1057=DIRECTION('',(1.0,0.0,0.0));
#1058=AXIS2_PLACEMENT_3D('',#1055,#1056,#1057);
#1059=CIRCLE('',#1058,32.01562118716424);
#1060=EDGE_CURVE('',#1040,#1048,#1059,.T.);
#1061=CARTESIAN_POINT('',(130.0,120.00000000000001,70.0));
#1062=VERTEX_POINT('',#1061);
#1063=CARTESIAN_POINT('',(110.0,120.00000000000001,70.0));
#1064=DIRECTION('',(0.0,2.220446049250313E-16,1.0));
#1065=DIRECTION('',(1.0,0.0,-0.0));
#1066=AXIS2_PLACEMENT_3D('',#1063,#1064,#1065);
#1067=CIRCLE('',#1066,20.0);
#1068=EDGE_CURVE('',#1062,#1062,#1067,.T.);
#1069=CARTESIAN_POINT('',(140.0,120.00000000000001,60.0));
#1070=DIRECTION('',(0.0,-1.0,2.220446049250313E-16));
#1071=DIRECTION('',(1.0,0.0,0.0));
#1072=AXIS2_PLACEMENT_3D('',#1069,#1070,#1071);
#1073=CIRCLE('',#1072,14.142135623730951);
#1074=EDGE_CURVE('',#1062,#1048,#1073,.T.);
#1075=CARTESIAN_POINT('',(134.0,120.00000000000001,74.0));
#1076=VERTEX_POINT('',#1075);
#1077=CARTESIAN_POINT('',(110.0,120.00000000000001,74.0));
#1078=DIRECTION('',(0.0,2.220446049250313E-16,1.0));
#1079=DIRECTION('',(1.0,0.0,-0.0));
#1080=AXIS2_PLACEMENT_3D('',#1077,#1078,#1079);
#1081=CIRCLE('',#1080,24.0);
#1082=EDGE_CURVE('',#1076,#1076,#1081,.T.);
#1083=CARTESIAN_POINT('',(130.0,120.00000000000001,70.0));
#1084=DIRECTION('',(0.7071067811865476,1.5700924586837752E-16,0.7071067811865476));
#1085=VECTOR('',#1084,0.9999999999999999);
#1086=LINE('',#1083,#1085);
#1087=EDGE_CURVE('',#1062,#1076,#1086,.T.);
#1088=CARTESIAN_POINT('',(110.0,120.0,0.0));
#1089=DIRECTION('',(0.0,2.220446049250313E-16,1.0));
#1090=DIRECTION('',(1.0,0.0,-0.0));
#1091=AXIS2_PLACEMENT_3D('',#1088,#1089,#1090);
#1092=PLANE('',#1091);
#1093=ORIENTED_EDGE('',*,*,#1046,.F.);
#1094=EDGE_LOOP('',(#1093));
#1095=FACE_BOUND('',#1094,.T.);
#1096=ADVANCED_FACE('',(#1095),#1092,.F.);
#1097=CARTESIAN_POINT('',(110.0,120.0,25.0));
#1098=DIRECTION('',(0.0,2.220446049250313E-16,1.0));
#1099=DIRECTION('',(1.0,0.0,-0.0));
#1100=AXIS2_PLACEMENT_3D('',#1097,#1098,#1099);
#1101=SPHERICAL_SURFACE('',#1100,32.01562118716424);
#1102=ORIENTED_EDGE('',*,*,#1046,.T.);
#1103=ORIENTED_EDGE('',*,*,#1060,.T.);
#1104=ORIENTED_EDGE('',*,*,#1054,.F.);
#1105=ORIENTED_EDGE('',*,*,#1060,.F.);
#1106=EDGE_LOOP('',(#1102,#1103,#1104,#1105));
#1107=FACE_BOUND('',#1106,.T.);
#1108=ADVANCED_FACE('',(#1107),#1101,.T.);
#1109=CARTESIAN_POINT('',(110.0,120.00000000000001,60.0));
#1110=DIRECTION('',(0.0,2.220446049250313E-16,1.0));
#1111=DIRECTION('',(1.0,0.0,-0.0));
#1112=AXIS2_PLACEMENT_3D('',#1109,#1110,#1111);
#1113=TOROIDAL_SURFACE('',#1112,30.0,14.142135623730951);
#1114=ORIENTED_EDGE('',*,*,#1054,.T.);
#1115=ORIENTED_EDGE('',*,*,#1074,.F.);
#1116=ORIENTED_EDGE('',*,*,#1068,.F.);
#1117=ORIENTED_EDGE('',*,*,#1074,.T.);
#1118=EDGE_LOOP('',(#1114,#1115,#1116,#1117));
#1119=FACE_BOUND('',#1118,.T.);
#1120=ADVANCED_FACE('',(#1119),#1113,.F.);
#1121=CARTESIAN_POINT('',(110.0,120.00000000000001,50.00000000000001));
#1122=DIRECTION('',(0.0,2.220446049250313E-16,1.0));
#1123=DIRECTION('',(1.0,0.0,-0.0));
#1124=AXIS2_PLACEMENT_3D('',#1121,#1122,#1123);
#1125=CONICAL_SURFACE('',#1124,0.,0.7853981633974483);
#1126=ORIENTED_EDGE('',*,*,#1068,.T.);
#1127=ORIENTED_EDGE('',*,*,#1087,.T.);
#1128=ORIENTED_EDGE('',*,*,#1082,.F.);
#1129=ORIENTED_EDGE('',*,*,#1087,.F.);
#1130=EDGE_LOOP('',(#1126,#1127,#1128,#1129));
#1131=FACE_BOUND('',#1130,.T.);
#1132=ADVANCED_FACE('',(#1131),#1125,.T.);
#1133=CARTESIAN_POINT('',(110.0,120.00000000000001,74.0));
#1134=DIRECTION('',(0.0,2.220446049250313E-16,1.0));
#1135=DIRECTION('',(1.0,0.0,-0.0));
#1136=AXIS2_PLACEMENT_3D('',#1133,#1134,#1135);
#1137=PLANE('',#1136);
#1138=ORIENTED_EDGE('',*,*,#1082,.T.);
#1139=EDGE_LOOP('',(#1138));
#1140=FACE_BOUND('',#1139,.T.);
#1141=ADVANCED_FACE('',(#1140),#1137,.T.);
#1142=CLOSED_SHELL('',(#1096,#1108,#1120,#1132,#1141));
#1143=MANIFOLD_SOLID_BREP('vase',#1142);
#1144=CARTESIAN_POINT('',(0.0,0.0,0.0));
#1145=DIRECTION('',(0.0,0.0,1.0));
#1146=DIRECTION('',(1.0,0.0,0.0));
#1147=AXIS2_PLACEMENT_3D('',#1144,#1145,#1146);
#1148=ADVANCED_BREP_SHAPE_REPRESENTATION('vase',(#1143,#1147),#5);
#1149=PRODUCT('vase','vase','',(#8));
#1150=PRODUCT_DEFINITION_FORMATION('','',#1149);
#1151=PRODUCT_DEFINITION('design','',#1150,#9);
#1152=PRODUCT_DEFINITION_SHAPE('','',#1151);
#1153=SHAPE_DEFINITION_REPRESENTATION(#1152,#1148);
#1154=CARTESIAN_POINT('',(210.0,120.0,0.0));
#1155=VERTEX_POINT('',#1154);
#1156=CARTESIAN_POINT('',(210.0,120.0,50.0));
#1157=VERTEX_POINT('',#1156);
#1158=CARTESIAN_POINT('',(210.0,120.0,25.0));
#1159=DIRECTION('',(0.0,-1.0,2.220446049250313E-16));
#1160=DIRECTION('',(1.0,0.0,0.0));
#1161=AXIS2_PLACEMENT_3D('',#1158,#1159,#1160);
#1162=CIRCLE('',#1161,25.0);
#1163=EDGE_CURVE('',#1155,#1157,#1162,.T.);
#1164=CARTESIAN_POINT('',(216.0,120.0,25.0));
#1165=VERTEX_POINT('',#1164);
#1166=CARTESIAN_POINT('',(210.0,120.0,25.0));
#1167=DIRECTION('',(0.0,2.220446049250313E-16,1.0));
#1168=DIRECTION('',(1.0,0.0,-0.0));
#1169=AXIS2_PLACEMENT_3D('',#1166,#1167,#1168);
#1170=CIRCLE('',#1169,6.0);
#1171=EDGE_CURVE('',#1165,#1165,#1170,.T.);
#1172=CARTESIAN_POINT('',(222.0,120.0,25.0));
#1173=DIRECTION('',(0.0,-1.0,2.220446049250313E-16));
#1174=DIRECTION('',(1.0,0.0,0.0));
#1175=AXIS2_PLACEMENT_3D('',#1172,#1173,#1174);
#1176=CIRCLE('',#1175,6.0);
#1177=EDGE_CURVE('',#1165,#1165,#1176,.T.);
#1178=CARTESIAN_POINT('',(210.0,120.0,25.0));
#1179=DIRECTION('',(0.0,2.220446049250313E-16,1.0));
#1180=DIRECTION('',(1.0,0.0,-0.0));
#1181=AXIS2_PLACEMENT_3D('',#1178,#1179,#1180);
#1182=SPHERICAL_SURFACE('',#1181,25.0);
#1183=ORIENTED_EDGE('',*,*,#1163,.T.);
#1184=ORIENTED_EDGE('',*,*,#1163,.F.);
#1185=EDGE_LOOP('',(#1183,#1184));
#1186=FACE_BOUND('',#1185,.T.);
#1187=ADVANCED_FACE('',(#1186),#1182,.T.);
#1188=CARTESIAN_POINT('',(210.0,120.0,25.0));
#1189=DIRECTION('',(0.0,2.220446049250313E-16,1.0));
#1190=DIRECTION('',(1.0,0.0,-0.0));
#1191=AXIS2_PLACEMENT_3D('',#1188,#1189,#1190);
#1192=TOROIDAL_SURFACE('',#1191,12.0,6.0);
#1193=ORIENTED_EDGE('',*,*,#1171,.T.);
#1194=ORIENTED_EDGE('',*,*,#1177,.F.);
#1195=ORIENTED_EDGE('',*,*,#1171,.F.);
#1196=ORIENTED_EDGE('',*,*,#1177,.T.);
#1197=EDGE_LOOP('',(#1193,#1194,#1195,#1196));
#1198=FACE_BOUND('',#1197,.F.);
#1199=ADVANCED_FACE('',(#1198),#1192,.T.);
#1200=CLOSED_SHELL('',(#1187));
#1201=CLOSED_SHELL('',(#1199));
#1202=ORIENTED_CLOSED_SHELL('',*,#1201,.F.);
#1203=BREP_WITH_VOIDS('hollow ball',#1200,(#1202));
#1204=CARTESIAN_POINT('',(0.0,0.0,0.0));
#1205=DIRECTION('',(0.0,0.0,1.0));
#1206=DIRECTION('',(1.0,0.0,0.0));
#1207=AXIS2_PLACEMENT_3D('',#1204,#1205,#1206);
#1208=ADVANCED_BREP_SHAPE_REPRESENTATION('hollow ball',(#1203,#1207),#5);
#1209=PRODUCT('hollow ball','hollow ball','',(#8));
#1210=PRODUCT_DEFINITION_FORMATION('','',#1209);
#1211=PRODUCT_DEFINITION('design','',#1210,#9);
#1212=PRODUCT_DEFINITION_SHAPE('','',#1211);
#1213=SHAPE_DEFINITION_REPRESENTATION(#1212,#1208);
#1214=CARTESIAN_POINT('',(0.0,220.0,0.0));
#1215=VERTEX_POINT('',#1214);
#1216=CARTESIAN_POINT('',(0.0,220.0,10.0));
#1217=VERTEX_POINT('',#1216);
#1218=CARTESIAN_POINT('',(0.0,220.0,0.0));
#1219=DIRECTION('',(0.0,0.0,1.0));
#1220=VECTOR('',#1219,1.0);
#1221=LINE('',#1218,#1220);
#1222=EDGE_CURVE('',#1215,#1217,#1221,.T.);
#1223=CARTESIAN_POINT('',(30.0,220.0,0.0));
#1224=VERTEX_POINT('',#1223);
#1225=CARTESIAN_POINT('',(30.0,220.0,10.0));
#1226=VERTEX_POINT('',#1225);
#1227=CARTESIAN_POINT('',(30.0,220.0,0.0));
#1228=DIRECTION('',(0.0,0.0,1.0));
#1229=VECTOR('',#1228,1.0);
#1230=LINE('',#1227,#1229);
#1231=EDGE_CURVE('',#1224,#1226,#1230,.T.);
#1232=CARTESIAN_POINT('',(30.0,240.0,0.0));
#1233=VERTEX_POINT('',#1232);
#1234=CARTESIAN_POINT('',(30.0,240.0,10.0));
#1235=VERTEX_POINT('',#1234);
#1236=CARTESIAN_POINT('',(30.0,240.0,0.0));
#1237=DIRECTION('',(0.0,0.0,1.0));
#1238=VECTOR('',#1237,1.0);
#1239=LINE('',#1236,#1238);
#1240=EDGE_CURVE('',#1233,#1235,#1239,.T.);
#1241=CARTESIAN_POINT('',(0.0,240.0,0.0));
#1242=VERTEX_POINT('',#1241);
#1243=CARTESIAN_POINT('',(0.0,240.0,10.0));
#1244=VERTEX_POINT('',#1243);
#1245=CARTESIAN_POINT('',(0.0,240.0,0.0));
#1246=DIRECTION('',(0.0,0.0,1.0));
#1247=VECTOR('',#1246,1.0);
#1248=LINE('',#1245,#1247);
#1249=EDGE_CURVE('',#1242,#1244,#1248,.T.);
#1250=CARTESIAN_POINT('',(0.0,220.0,0.0));
#1251=DIRECTION('',(1.0,0.0,0.0));
#1252=VECTOR('',#1251,1.0);
#1253=LINE('',#1250,#1252);
#1254=EDGE_CURVE('',#1215,#1224,#1253,.T.);
#1255=CARTESIAN_POINT('',(0.0,220.0,10.0));
#1256=DIRECTION('',(1.0,0.0,0.0));
#1257=VECTOR('',#1256,1.0);
#1258=LINE('',#1255,#1257);
#1259=EDGE_CURVE('',#1217,#1226,#1258,.T.);
#1260=CARTESIAN_POINT('',(30.0,220.0,0.0));
#1261=DIRECTION('',(0.0,1.0,0.0));
#1262=VECTOR('',#1261,1.0);
#1263=LINE('',#1260,#1262);
#1264=EDGE_CURVE('',#1224,#1233,#1263,.T.);
#1265=CARTESIAN_POINT('',(30.0,220.0,10.0));
#1266=DIRECTION('',(0.0,1.0,0.0));
#1267=VECTOR('',#1266,1.0);
#1268=LINE('',#1265,#1267);
#1269=EDGE_CURVE('',#1226,#1235,#1268,.T.);
#1270=CARTESIAN_POINT('',(30.0,240.0,0.0));
#1271=DIRECTION('',(-1.0,0.0,0.0));
#1272=VECTOR('',#1271,1.0);
#1273=LINE('',#1270,#1272);
#1274=EDGE_CURVE('',#1233,#1242,#1273,.T.);
#1275=CARTESIAN_POINT('',(30.0,240.0,10.0));
#1276=DIRECTION('',(-1.0,0.0,0.0));
#1277=VECTOR('',#1276,1.0);
#1278=LINE('',#1275,#1277);
#1279=EDGE_CURVE('',#1235,#1244,#1278,.T.);
#1280=CARTESIAN_POINT('',(0.0,240.0,0.0));
#1281=DIRECTION('',(0.0,-1.0,0.0));
#1282=VECTOR('',#1281,1.0);
#1283=LINE('',#1280,#1282);
#1284=EDGE_CURVE('',#1242,#1215,#1283,.T.);
#1285=CARTESIAN_POINT('',(0.0,240.0,10.0));
#1286=DIRECTION('',(0.0,-1.0,0.0));
#1287=VECTOR('',#1286,1.0);
#1288=LINE('',#1285,#1287);
#1289=EDGE_CURVE('',#1244,#1217,#1288,.T.);
#1290=CARTESIAN_POINT('',(0.0,220.0,0.0));
#1291=DIRECTION('',(0.0,0.0,1.0));
#1292=DIRECTION('',(1.0,0.0,0.0));
#1293=AXIS2_PLACEMENT_3D('',#1290,#1291,#1292);
#1294=PLANE('',#1293);
#1295=ORIENTED_EDGE('',*,*,#1284,.F.);
#1296=ORIENTED_EDGE('',*,*,#1274,.F.);
#1297=ORIENTED_EDGE('',*,*,#1264,.F.);
#1298=ORIENTED_EDGE('',*,*,#1254,.F.);
#1299=EDGE_LOOP('',(#1295,#1296,#1297,#1298));
#1300=FACE_BOUND('',#1299,.T.);
#1301=ADVANCED_FACE('',(#1300),#1294,.F.);
#1302=CARTESIAN_POINT('',(0.0,220.0,10.0));
#1303=DIRECTION('',(0.0,0.0,1.0));
#1304=DIRECTION('',(1.0,0.0,0.0));
#1305=AXIS2_PLACEMENT_3D('',#1302,#1303,#1304);
#1306=PLANE('',#1305);
#1307=ORIENTED_EDGE('',*,*,#1259,.T.);
#1308=ORIENTED_EDGE('',*,*,#1269,.T.);
#1309=ORIENTED_EDGE('',*,*,#1279,.T.);
#1310=ORIENTED_EDGE('',*,*,#1289,.T.);
#1311=EDGE_LOOP('',(#1307,#1308,#1309,#1310));
#1312=FACE_BOUND('',#1311,.T.);
#1313=ADVANCED_FACE('',(#1312),#1306,.T.);
#1314=CARTESIAN_POINT('',(0.0,220.0,0.0));
#1315=DIRECTION('',(0.0,-1.0,2.220446049250313E-16));
#1316=DIRECTION('',(1.0,0.0,0.0));
#1317=AXIS2_PLACEMENT_3D('',#1314,#1315,#1316);
#1318=PLANE('',#1317);
#1319=ORIENTED_EDGE('',*,*,#1254,.T.);
#1320=ORIENTED_EDGE('',*,*,#1231,.T.);
#1321=ORIENTED_EDGE('',*,*,#1259,.F.);
#1322=ORIENTED_EDGE('',*,*,#1222,.F.);
#1323=EDGE_LOOP('',(#1319,#1320,#1321,#1322));
#1324=FACE_BOUND('',#1323,.T.);
#1325=ADVANCED_FACE('',(#1324),#1318,.T.);
#1326=CARTESIAN_POINT('',(30.0,220.0,0.0));
#1327=DIRECTION('',(1.0,0.0,0.0));
#1328=DIRECTION('',(0.0,1.0,0.0));
#1329=AXIS2_PLACEMENT_3D('',#1326,#1327,#1328);
#1330=PLANE('',#1329);
#1331=ORIENTED_EDGE('',*,*,#1264,.T.);
#1332=ORIENTED_EDGE('',*,*,#1240,.T.);
#1333=ORIENTED_EDGE('',*,*,#1269,.F.);
#1334=ORIENTED_EDGE('',*,*,#1231,.F.);
#1335=EDGE_LOOP('',(#1331,#1332,#1333,#1334));
#1336=FACE_BOUND('',#1335,.T.);
#1337=ADVANCED_FACE('',(#1336),#1330,.T.);
#1338=CARTESIAN_POINT('',(30.0,240.0,0.0));
#1339=DIRECTION('',(0.0,1.0,2.220446049250313E-16));
#1340=DIRECTION('',(-1.0,0.0,0.0));
#1341=AXIS2_PLACEMENT_3D('',#1338,#1339,#1340);
#1342=PLANE('',#1341);
#1343=ORIENTED_EDGE('',*,*,#1274,.T.);
#1344=ORIENTED_EDGE('',*,*,#1249,.T.);
#1345=ORIENTED_EDGE('',*,*,#1279,.F.);
#1346=ORIENTED_EDGE('',*,*,#1240,.F.);
#1347=EDGE_LOOP('',(#1343,#1344,#1345,#1346));
#1348=FACE_BOUND('',#1347,.T.);
#1349=ADVANCED_FACE('',(#1348),#1342,.T.);
#1350=CARTESIAN_POINT('',(0.0,240.0,0.0));
#1351=DIRECTION('',(-1.0,0.0,0.0));
#1352=DIRECTION('',(0.0,-1.0,0.0));
#1353=AXIS2_PLACEMENT_3D('',#1350,#1351,#1352);
#1354=PLANE('',#1353);
#1355=ORIENTED_EDGE('',*,*,#1284,.T.);
#1356=ORIENTED_EDGE('',*,*,#1222,.T.);
#1357=ORIENTED_EDGE('',*,*,#1289,.F.);
#1358=ORIENTED_EDGE('',*,*,#1249,.F.);
#1359=EDGE_LOOP('',(#1355,#1356,#1357,#1358));
#1360=FACE_BOUND('',#1359,.T.);
#1361=ADVANCED_FACE('',(#1360),#1354,.T.);
#1362=CLOSED_SHELL('',(#1301,#1313,#1325,#1337,#1349,#1361));
#1363=MANIFOLD_SOLID_BREP('box',#1362);
#1364=CARTESIAN_POINT('',(0.0,0.0,0.0));
#1365=DIRECTION('',(0.0,0.0,1.0));
#1366=DIRECTION('',(1.0,0.0,0.0));
#1367=AXIS2_PLACEMENT_3D('',#1364,#1365,#1366);
#1368=ADVANCED_BREP_SHAPE_REPRESENTATION('box',(#1363,#1367),#5);
#1369=PRODUCT('box','box','',(#8));
#1370=PRODUCT_DEFINITION_FORMATION('','',#1369);
#1371=PRODUCT_DEFINITION('design','',#1370,#9);
#1372=PRODUCT_DEFINITION_SHAPE('','',#1371);
#1373=SHAPE_DEFINITION_REPRESENTATION(#1372,#1368);
#1374=CARTESIAN_POINT('',(50.0,230.0,0.0));
#1375=VERTEX_POINT('',#1374);
#1376=CARTESIAN_POINT('',(50.0,230.0,30.0));
#1377=VERTEX_POINT('',#1376);
#1378=CARTESIAN_POINT('',(50.0,230.0,0.0));
#1379=DIRECTION('',(0.0,0.0,1.0));
#1380=VECTOR('',#1379,1.0);
#1381=LINE('',#1378,#1380);
#1382=EDGE_CURVE('',#1375,#1377,#1381,.T.);
#1383=CARTESIAN_POINT('',(60.0,230.0,0.0));
#1384=DIRECTION('',(0.0,0.0,1.0));
#1385=DIRECTION('',(1.0,0.0,0.0));
#1386=AXIS2_PLACEMENT_3D('',#1383,#1384,#1385);
#1387=CIRCLE('',#1386,10.0);
#1388=EDGE_CURVE('',#1375,#1375,#1387,.T.);
#1389=CARTESIAN_POINT('',(60.0,230.0,30.0));
#1390=DIRECTION('',(0.0,0.0,1.0));
#1391=DIRECTION('',(1.0,0.0,0.0));
#1392=AXIS2_PLACEMENT_3D('',#1389,#1390,#1391);
#1393=CIRCLE('',#1392,10.0);
#1394=EDGE_CURVE('',#1377,#1377,#1393,.T.);
#1395=CARTESIAN_POINT('',(60.0,230.0,0.0));
#1396=DIRECTION('',(0.0,0.0,1.0));
#1397=DIRECTION('',(1.0,0.0,0.0));
#1398=AXIS2_PLACEMENT_3D('',#1395,#1396,#1397);
#1399=PLANE('',#1398);
#1400=ORIENTED_EDGE('',*,*,#1388,.F.);
#1401=EDGE_LOOP('',(#1400));
#1402=FACE_BOUND('',#1401,.T.);
#1403=ADVANCED_FACE('',(#1402),#1399,.F.);
#1404=CARTESIAN_POINT('',(60.0,230.0,30.0));
#1405=DIRECTION('',(0.0,0.0,1.0));
#1406=DIRECTION('',(1.0,0.0,0.0));
#1407=AXIS2_PLACEMENT_3D('',#1404,#1405,#1406);
#1408=PLANE('',#1407);
#1409=ORIENTED_EDGE('',*,*,#1394,.T.);
#1410=EDGE_LOOP('',(#1409));
#1411=FACE_BOUND('',#1410,.T.);
#1412=ADVANCED_FACE('',(#1411),#1408,.T.);
#1413=CARTESIAN_POINT('',(60.0,230.0,0.0));
#1414=DIRECTION('',(0.0,0.0,1.0));
#1415=DIRECTION('',(1.0,0.0,0.0));
#1416=AXIS2_PLACEMENT_3D('',#1413,#1414,#1415);
#1417=CYLINDRICAL_SURFACE('',#1416,10.0);
#1418=ORIENTED_EDGE('',*,*,#1388,.T.);
#1419=ORIENTED_EDGE('',*,*,#1382,.T.);
#1420=ORIENTED_EDGE('',*,*,#1394,.F.);
#1421=ORIENTED_EDGE('',*,*,#1382,.F.);
#1422=EDGE_LOOP('',(#1418,#1419,#1420,#1421));
#1423=FACE_BOUND('',#1422,.T.);
#1424=ADVANCED_FACE('',(#1423),#1417,.T.);
#1425=CLOSED_SHELL('',(#1403,#1412,#1424));
#1426=MANIFOLD_SOLID_BREP('cylinder',#1425);
#1427=CARTESIAN_POINT('',(0.0,0.0,0.0));
#1428=DIRECTION('',(0.0,0.0,1.0));
#1429=DIRECTION('',(1.0,0.0,0.0));
#1430=AXIS2_PLACEMENT_3D('',#1427,#1428,#1429);
#1431=ADVANCED_BREP_SHAPE_REPRESENTATION('cylinder',(#1426,#1430),#5);
#1432=PRODUCT('cylinder','cylinder','',(#8));
#1433=PRODUCT_DEFINITION_FORMATION('','',#1432);
#1434=PRODUCT_DEFINITION('design','',#1433,#9);
#1435=PRODUCT_DEFINITION_SHAPE('','',#1434);
#1436=SHAPE_DEFINITION_REPRESENTATION(#1435,#1431);
#1437=CARTESIAN_POINT('',(112.0,230.0,0.0));
#1438=VERTEX_POINT('',#1437);
#1439=CARTESIAN_POINT('',(100.0,230.0,0.0));
#1440=DIRECTION('',(0.0,2.220446049250313E-16,1.0));
#1441=DIRECTION('',(1.0,0.0,-0.0));
#1442=AXIS2_PLACEMENT_3D('',#1439,#1440,#1441);
#1443=CIRCLE('',#1442,12.0);
#1444=EDGE_CURVE('',#1438,#1438,#1443,.T.);
#1445=CARTESIAN_POINT('',(100.0,230.0,30.0));
#1446=VERTEX_POINT('',#1445);
#1447=CARTESIAN_POINT('',(112.0,230.0,0.0));
#1448=DIRECTION('',(-0.3713906763541038,2.0616324000971784E-16,0.9284766908852594));
#1449=VECTOR('',#1448,1.0);
#1450=LINE('',#1447,#1449);
#1451=EDGE_CURVE('',#1438,#1446,#1450,.T.);
#1452=CARTESIAN_POINT('',(100.0,230.0,0.0));
#1453=DIRECTION('',(0.0,2.220446049250313E-16,1.0));
#1454=DIRECTION('',(1.0,0.0,-0.0));
#1455=AXIS2_PLACEMENT_3D('',#1452,#1453,#1454);
#1456=PLANE('',#1455);
#1457=ORIENTED_EDGE('',*,*,#1444,.F.);
#1458=EDGE_LOOP('',(#1457));
#1459=FACE_BOUND('',#1458,.T.);
#1460=ADVANCED_FACE('',(#1459),#1456,.F.);
#1461=CARTESIAN_POINT('',(100.0,230.0,30.0));
#1462=DIRECTION('',(0.0,-3.4450928483976665E-16,-1.0));
#1463=DIRECTION('',(1.0,0.0,0.0));
#1464=AXIS2_PLACEMENT_3D('',#1461,#1462,#1463);
#1465=CONICAL_SURFACE('',#1464,0.,0.3805063771123649);
#1466=ORIENTED_EDGE('',*,*,#1444,.T.);
#1467=ORIENTED_EDGE('',*,*,#1451,.T.);
#1468=ORIENTED_EDGE('',*,*,#1451,.F.);
#1469=EDGE_LOOP('',(#1466,#1467,#1468));
#1470=FACE_BOUND('',#1469,.T.);
#1471=ADVANCED_FACE('',(#1470),#1465,.T.);
#1472=CLOSED_SHELL('',(#1460,#1471));
#1473=MANIFOLD_SOLID_BREP('cone',#1472);
#1474=CARTESIAN_POINT('',(0.0,0.0,0.0));
#1475=DIRECTION('',(0.0,0.0,1.0));
#1476=DIRECTION('',(1.0,0.0,0.0));
#1477=AXIS2_PLACEMENT_3D('',#1474,#1475,#1476);
#1478=ADVANCED_BREP_SHAPE_REPRESENTATION('cone',(#1473,#1477),#5);
#1479=PRODUCT('cone','cone','',(#8));
#1480=PRODUCT_DEFINITION_FORMATION('','',#1479);
#1481=PRODUCT_DEFINITION('design','',#1480,#9);
#1482=PRODUCT_DEFINITION_SHAPE('','',#1481);
#1483=SHAPE_DEFINITION_REPRESENTATION(#1482,#1478);
#1484=CARTESIAN_POINT('',(154.0,230.0,0.0));
#1485=VERTEX_POINT('',#1484);
#1486=CARTESIAN_POINT('',(140.0,230.0,0.0));
#1487=DIRECTION('',(0.0,2.220446049250313E-16,1.0));
#1488=DIRECTION('',(1.0,0.0,-0.0));
#1489=AXIS2_PLACEMENT_3D('',#1486,#1487,#1488);
#1490=CIRCLE('',#1489,14.0);
#1491=EDGE_CURVE('',#1485,#1485,#1490,.T.);
#1492=CARTESIAN_POINT('',(146.0,230.0,20.0));
#1493=VERTEX_POINT('',#1492);
#1494=CARTESIAN_POINT('',(140.0,230.0,20.0));
#1495=DIRECTION('',(0.0,2.220446049250313E-16,1.0));
#1496=DIRECTION('',(1.0,0.0,-0.0));
#1497=AXIS2_PLACEMENT_3D('',#1494,#1495,#1496);
#1498=CIRCLE('',#1497,6.0);
#1499=EDGE_CURVE('',#1493,#1493,#1498,.T.);
#1500=CARTESIAN_POINT('',(154.0,230.0,0.0));
#1501=DIRECTION('',(-0.3713906763541037,2.0616324000971784E-16,0.9284766908852594));
#1502=VECTOR('',#1501,1.0);
#1503=LINE('',#1500,#1502);
#1504=EDGE_CURVE('',#1485,#1493,#1503,.T.);
#1505=CARTESIAN_POINT('',(140.0,230.0,0.0));
#1506=DIRECTION('',(0.0,2.220446049250313E-16,1.0));
#1507=DIRECTION('',(1.0,0.0,-0.0));
#1508=AXIS2_PLACEMENT_3D('',#1505,#1506,#1507);
#1509=PLANE('',#1508);
#1510=ORIENTED_EDGE('',*,*,#1491,.F.);
#1511=EDGE_LOOP('',(#1510));
#1512=FACE_BOUND('',#1511,.T.);
#1513=ADVANCED_FACE('',(#1512),#1509,.F.);
#1514=CARTESIAN_POINT('',(140.0,230.0,35.0));
#1515=DIRECTION('',(0.0,-3.4450928483976665E-16,-1.0));
#1516=DIRECTION('',(1.0,0.0,0.0));
#1517=AXIS2_PLACEMENT_3D('',#1514,#1515,#1516);
#1518=CONICAL_SURFACE('',#1517,0.,0.38050637711236485);
#1519=ORIENTED_EDGE('',*,*,#1491,.T.);
#1520=ORIENTED_EDGE('',*,*,#1504,.T.);
#1521=ORIENTED_EDGE('',*,*,#1499,.F.);
#1522=ORIENTED_EDGE('',*,*,#1504,.F.);
#1523=EDGE_LOOP('',(#1519,#1520,#1521,#1522));
#1524=FACE_BOUND('',#1523,.T.);
#1525=ADVANCED_FACE('',(#1524),#1518,.T.);
#1526=CARTESIAN_POINT('',(140.0,230.0,20.0));
#1527=DIRECTION('',(0.0,2.220446049250313E-16,1.0));
#1528=DIRECTION('',(1.0,0.0,-0.0));
#1529=AXIS2_PLACEMENT_3D('',#1526,#1527,#1528);
#1530=PLANE('',#1529);
#1531=ORIENTED_EDGE('',*,*,#1499,.T.);
#1532=EDGE_LOOP('',(#1531));
#1533=FACE_BOUND('',#1532,.T.);
#1534=ADVANCED_FACE('',(#1533),#1530,.T.);
#1535=CLOSED_SHELL('',(#1513,#1525,#1534));
#1536=MANIFOLD_SOLID_BREP('frustum',#1535);
#1537=CARTESIAN_POINT('',(0.0,0.0,0.0));
#1538=DIRECTION('',(0.0,0.0,1.0));
#1539=DIRECTION('',(1.0,0.0,0.0));
#1540=AXIS2_PLACEMENT_3D('',#1537,#1538,#1539);
#1541=ADVANCED_BREP_SHAPE_REPRESENTATION('frustum',(#1536,#1540),#5);
#1542=PRODUCT('frustum','frustum','',(#8));
#1543=PRODUCT_DEFINITION_FORMATION('','',#1542);
#1544=PRODUCT_DEFINITION('design','',#1543,#9);
#1545=PRODUCT_DEFINITION_SHAPE('','',#1544);
#1546=SHAPE_DEFINITION_REPRESENTATION(#1545,#1541);
#1547=CARTESIAN_POINT('',(180.0,230.0,0.0));
#1548=VERTEX_POINT('',#1547);
#1549=CARTESIAN_POINT('',(180.0,230.0,30.0));
#1550=VERTEX_POINT('',#1549);
#1551=CARTESIAN_POINT('',(180.0,230.0,15.0));
#1552=DIRECTION('',(0.0,-1.0,2.220446049250313E-16));
#1553=DIRECTION('',(1.0,0.0,0.0));
#1554=AXIS2_PLACEMENT_3D('',#1551,#1552,#1553);
#1555=CIRCLE('',#1554,15.0);
#1556=EDGE_CURVE('',#1548,#1550,#1555,.T.);
#1557=CARTESIAN_POINT('',(180.0,230.0,15.0));
#1558=DIRECTION('',(0.0,2.220446049250313E-16,1.0));
#1559=DIRECTION('',(1.0,0.0,-0.0));
#1560=AXIS2_PLACEMENT_3D('',#1557,#1558,#1559);
#1561=SPHERICAL_SURFACE('',#1560,15.0);
#1562=ORIENTED_EDGE('',*,*,#1556,.T.);
#1563=ORIENTED_EDGE('',*,*,#1556,.F.);
#1564=EDGE_LOOP('',(#1562,#1563));
#1565=FACE_BOUND('',#1564,.T.);
#1566=ADVANCED_FACE('',(#1565),#1561,.T.);
#1567=CLOSED_SHELL('',(#1566));
#1568=MANIFOLD_SOLID_BREP('sphere',#1567);
#1569=CARTESIAN_POINT('',(0.0,0.0,0.0));
#1570=DIRECTION('',(0.0,0.0,1.0));
#1571=DIRECTION('',(1.0,0.0,0.0));
#1572=AXIS2_PLACEMENT_3D('',#1569,#1570,#1571);
#1573=ADVANCED_BREP_SHAPE_REPRESENTATION('sphere',(#1568,#1572),#5);
#1574=PRODUCT('sphere','sphere','',(#8));
#1575=PRODUCT_DEFINITION_FORMATION('','',#1574);
#1576=PRODUCT_DEFINITION('design','',#1575,#9);
#1577=PRODUCT_DEFINITION_SHAPE('','',#1576);
#1578=SHAPE_DEFINITION_REPRESENTATION(#1577,#1573);
#1579=CARTESIAN_POINT('',(239.338094023943,231.0280470485075,11.573176504975045));
#1580=VERTEX_POINT('',#1579);
#1581=CARTESIAN_POINT('',(230.0,230.0,15.0));
#1582=DIRECTION('',(0.35777087639996646,-0.2683281572999748,0.8944271909999159));
#1583=DIRECTION('',(0.9338094023943002,0.1028047048507486,-0.34268234950249554));
#1584=AXIS2_PLACEMENT_3D('',#1581,#1582,#1583);
#1585=CIRCLE('',#1584,10.0);
#1586=EDGE_CURVE('',#1580,#1580,#1585,.T.);
#1587=CARTESIAN_POINT('',(244.00714103591451,231.54207057276122,9.859764757462568));
#1588=DIRECTION('',(-8.326672684688674E-17,-0.9578262852211514,-0.2873478855663453));
#1589=DIRECTION('',(0.9338094023943001,0.10280470485074855,-0.34268234950249565));
#1590=AXIS2_PLACEMENT_3D('',#1587,#1588,#1589);
#1591=CIRCLE('',#1590,5.0);
#1592=EDGE_CURVE('',#1580,#1580,#1591,.T.);
#1593=CARTESIAN_POINT('',(230.0,230.0,15.0));
#1594=DIRECTION('',(0.35777087639996646,-0.2683281572999748,0.8944271909999159));
#1595=DIRECTION('',(0.9338094023943002,0.1028047048507486,-0.34268234950249554));
#1596=AXIS2_PLACEMENT_3D('',#1593,#1594,#1595);
#1597=TOROIDAL_SURFACE('',#1596,15.0,5.0);
#1598=ORIENTED_EDGE('',*,*,#1586,.T.);
#1599=ORIENTED_EDGE('',*,*,#1592,.T.);
#1600=ORIENTED_EDGE('',*,*,#1586,.F.);
#1601=ORIENTED_EDGE('',*,*,#1592,.F.);
#1602=EDGE_LOOP('',(#1598,#1599,#1600,#1601));
#1603=FACE_BOUND('',#1602,.T.);
#1604=ADVANCED_FACE('',(#1603),#1597,.T.);
#1605=CLOSED_SHELL('',(#1604));
#1606=MANIFOLD_SOLID_BREP('torus',#1605);
#1607=CARTESIAN_POINT('',(0.0,0.0,0.0));
#1608=DIRECTION('',(0.0,0.0,1.0));
#1609=DIRECTION('',(1.0,0.0,0.0));
#1610=AXIS2_PLACEMENT_3D('',#1607,#1608,#1609);
#1611=ADVANCED_BREP_SHAPE_REPRESENTATION('torus',(#1606,#1610),#5);
#1612=PRODUCT('torus','torus','',(#8));
#1613=PRODUCT_DEFINITION_FORMATION('','',#1612);
#1614=PRODUCT_DEFINITION('design','',#1613,#9);
#1615=PRODUCT_DEFINITION_SHAPE('','',#1614);
#1616=SHAPE_DEFINITION_REPRESENTATION(#1615,#1611);
#1617=PRODUCT_RELATED_PRODUCT_CATEGORY('part',$,(#523,#881,#1034,#1149,#1209,#1369,#1432,#1479,#1542,#1574,#1612));
ENDSEC;
END-ISO-10303-21;
